<svg width="389" height="389" viewBox="0 0 389 389" fill="none" xmlns="http://www.w3.org/2000/svg">
<g clip-path="url(#clip0_87_3719)">
<path d="M389 0H0V389H389V0Z" fill="white"/>
<path d="M131.419 21.027C134.322 21.027 136.676 23.3805 136.676 26.2837C136.676 29.1871 134.322 31.5405 131.419 31.5405C128.516 31.5405 126.162 29.1871 126.162 26.2837C126.162 23.3805 128.516 21.027 131.419 21.027Z" fill="black"/>
<path d="M183.986 21.027C186.89 21.027 189.243 23.3805 189.243 26.2837C189.243 29.1871 186.89 31.5405 183.986 31.5405C181.083 31.5405 178.73 29.1871 178.73 26.2837C178.73 23.3805 181.083 21.027 183.986 21.027Z" fill="black"/>
<path d="M194.5 21.027C197.404 21.027 199.757 23.3805 199.757 26.2837C199.757 29.1871 197.404 31.5405 194.5 31.5405C191.597 31.5405 189.243 29.1871 189.243 26.2837C189.243 23.3805 191.597 21.027 194.5 21.027Z" fill="black"/>
<path d="M268.095 21.027C270.998 21.027 273.352 23.3805 273.352 26.2837C273.352 29.1871 270.998 31.5405 268.095 31.5405C265.192 31.5405 262.838 29.1871 262.838 26.2837C262.838 23.3805 265.192 21.027 268.095 21.027Z" fill="black"/>
<path d="M278.608 21.027C281.512 21.027 283.865 23.3805 283.865 26.2837C283.865 29.1871 281.512 31.5405 278.608 31.5405C275.705 31.5405 273.352 29.1871 273.352 26.2837C273.352 23.3805 275.705 21.027 278.608 21.027Z" fill="black"/>
<path d="M120.906 31.5405C123.809 31.5405 126.162 33.8941 126.162 36.7973C126.162 39.7006 123.809 42.054 120.906 42.054C118.002 42.054 115.649 39.7006 115.649 36.7973C115.649 33.8941 118.002 31.5405 120.906 31.5405Z" fill="black"/>
<path d="M131.419 31.5405C134.322 31.5405 136.676 33.8941 136.676 36.7973C136.676 39.7006 134.322 42.054 131.419 42.054C128.516 42.054 126.162 39.7006 126.162 36.7973C126.162 33.8941 128.516 31.5405 131.419 31.5405Z" fill="black"/>
<path d="M141.933 31.5405C144.836 31.5405 147.19 33.8941 147.19 36.7973C147.19 39.7006 144.836 42.054 141.933 42.054C139.03 42.054 136.676 39.7006 136.676 36.7973C136.676 33.8941 139.03 31.5405 141.933 31.5405Z" fill="black"/>
<path d="M183.986 31.5405C186.89 31.5405 189.243 33.8941 189.243 36.7973C189.243 39.7006 186.89 42.054 183.986 42.054C181.083 42.054 178.73 39.7006 178.73 36.7973C178.73 33.8941 181.083 31.5405 183.986 31.5405Z" fill="black"/>
<path d="M194.5 31.5405C197.404 31.5405 199.757 33.8941 199.757 36.7973C199.757 39.7006 197.404 42.054 194.5 42.054C191.597 42.054 189.243 39.7006 189.243 36.7973C189.243 33.8941 191.597 31.5405 194.5 31.5405Z" fill="black"/>
<path d="M205.014 31.5405C207.917 31.5405 210.271 33.8941 210.271 36.7973C210.271 39.7006 207.917 42.054 205.014 42.054C202.111 42.054 199.757 39.7006 199.757 36.7973C199.757 33.8941 202.111 31.5405 205.014 31.5405Z" fill="black"/>
<path d="M215.528 31.5405C218.431 31.5405 220.784 33.8941 220.784 36.7973C220.784 39.7006 218.431 42.054 215.528 42.054C212.624 42.054 210.271 39.7006 210.271 36.7973C210.271 33.8941 212.624 31.5405 215.528 31.5405Z" fill="black"/>
<path d="M236.554 31.5405C239.458 31.5405 241.811 33.8941 241.811 36.7973C241.811 39.7006 239.458 42.054 236.554 42.054C233.651 42.054 231.298 39.7006 231.298 36.7973C231.298 33.8941 233.651 31.5405 236.554 31.5405Z" fill="black"/>
<path d="M247.068 31.5405C249.971 31.5405 252.325 33.8941 252.325 36.7973C252.325 39.7006 249.971 42.054 247.068 42.054C244.165 42.054 241.811 39.7006 241.811 36.7973C241.811 33.8941 244.165 31.5405 247.068 31.5405Z" fill="black"/>
<path d="M268.095 31.5405C270.998 31.5405 273.352 33.8941 273.352 36.7973C273.352 39.7006 270.998 42.054 268.095 42.054C265.192 42.054 262.838 39.7006 262.838 36.7973C262.838 33.8941 265.192 31.5405 268.095 31.5405Z" fill="black"/>
<path d="M162.96 42.0541C165.863 42.0541 168.216 44.4076 168.216 47.3108C168.216 50.2142 165.863 52.5676 162.96 52.5676C160.056 52.5676 157.703 50.2142 157.703 47.3108C157.703 44.4076 160.056 42.0541 162.96 42.0541Z" fill="black"/>
<path d="M205.014 42.0541C207.917 42.0541 210.271 44.4076 210.271 47.3108C210.271 50.2142 207.917 52.5676 205.014 52.5676C202.111 52.5676 199.757 50.2142 199.757 47.3108C199.757 44.4076 202.111 42.0541 205.014 42.0541Z" fill="black"/>
<path d="M226.041 42.0541C228.944 42.0541 231.297 44.4076 231.297 47.3108C231.297 50.2142 228.944 52.5676 226.041 52.5676C223.137 52.5676 220.784 50.2142 220.784 47.3108C220.784 44.4076 223.137 42.0541 226.041 42.0541Z" fill="black"/>
<path d="M268.095 42.0541C270.998 42.0541 273.352 44.4076 273.352 47.3108C273.352 50.2142 270.998 52.5676 268.095 52.5676C265.192 52.5676 262.838 50.2142 262.838 47.3108C262.838 44.4076 265.192 42.0541 268.095 42.0541Z" fill="black"/>
<path d="M120.906 52.5676C123.809 52.5676 126.162 54.9212 126.162 57.8244C126.162 60.7277 123.809 63.0811 120.906 63.0811C118.002 63.0811 115.649 60.7277 115.649 57.8244C115.649 54.9212 118.002 52.5676 120.906 52.5676Z" fill="black"/>
<path d="M152.446 52.5676C155.35 52.5676 157.703 54.9212 157.703 57.8244C157.703 60.7277 155.35 63.0811 152.446 63.0811C149.543 63.0811 147.189 60.7277 147.189 57.8244C147.189 54.9212 149.543 52.5676 152.446 52.5676Z" fill="black"/>
<path d="M162.96 52.5676C165.863 52.5676 168.216 54.9212 168.216 57.8244C168.216 60.7277 165.863 63.0811 162.96 63.0811C160.056 63.0811 157.703 60.7277 157.703 57.8244C157.703 54.9212 160.056 52.5676 162.96 52.5676Z" fill="black"/>
<path d="M173.473 52.5676C176.377 52.5676 178.73 54.9212 178.73 57.8244C178.73 60.7277 176.377 63.0811 173.473 63.0811C170.57 63.0811 168.217 60.7277 168.217 57.8244C168.217 54.9212 170.57 52.5676 173.473 52.5676Z" fill="black"/>
<path d="M183.986 52.5676C186.89 52.5676 189.243 54.9212 189.243 57.8244C189.243 60.7277 186.89 63.0811 183.986 63.0811C181.083 63.0811 178.73 60.7277 178.73 57.8244C178.73 54.9212 181.083 52.5676 183.986 52.5676Z" fill="black"/>
<path d="M215.528 52.5676C218.431 52.5676 220.784 54.9212 220.784 57.8244C220.784 60.7277 218.431 63.0811 215.528 63.0811C212.624 63.0811 210.271 60.7277 210.271 57.8244C210.271 54.9212 212.624 52.5676 215.528 52.5676Z" fill="black"/>
<path d="M226.041 52.5676C228.944 52.5676 231.297 54.9212 231.297 57.8244C231.297 60.7277 228.944 63.0811 226.041 63.0811C223.137 63.0811 220.784 60.7277 220.784 57.8244C220.784 54.9212 223.137 52.5676 226.041 52.5676Z" fill="black"/>
<path d="M268.095 52.5676C270.998 52.5676 273.352 54.9212 273.352 57.8244C273.352 60.7277 270.998 63.0811 268.095 63.0811C265.192 63.0811 262.838 60.7277 262.838 57.8244C262.838 54.9212 265.192 52.5676 268.095 52.5676Z" fill="black"/>
<path d="M278.608 52.5676C281.512 52.5676 283.865 54.9212 283.865 57.8244C283.865 60.7277 281.512 63.0811 278.608 63.0811C275.705 63.0811 273.352 60.7277 273.352 57.8244C273.352 54.9212 275.705 52.5676 278.608 52.5676Z" fill="black"/>
<path d="M110.392 63.0811C113.295 63.0811 115.649 65.4346 115.649 68.3378C115.649 71.2412 113.295 73.5946 110.392 73.5946C107.489 73.5946 105.135 71.2412 105.135 68.3378C105.135 65.4346 107.489 63.0811 110.392 63.0811Z" fill="black"/>
<path d="M120.906 63.0811C123.809 63.0811 126.162 65.4346 126.162 68.3378C126.162 71.2412 123.809 73.5946 120.906 73.5946C118.002 73.5946 115.649 71.2412 115.649 68.3378C115.649 65.4346 118.002 63.0811 120.906 63.0811Z" fill="black"/>
<path d="M141.933 63.0811C144.836 63.0811 147.19 65.4346 147.19 68.3378C147.19 71.2412 144.836 73.5946 141.933 73.5946C139.03 73.5946 136.676 71.2412 136.676 68.3378C136.676 65.4346 139.03 63.0811 141.933 63.0811Z" fill="black"/>
<path d="M152.446 63.0811C155.35 63.0811 157.703 65.4346 157.703 68.3378C157.703 71.2412 155.35 73.5946 152.446 73.5946C149.543 73.5946 147.189 71.2412 147.189 68.3378C147.189 65.4346 149.543 63.0811 152.446 63.0811Z" fill="black"/>
<path d="M173.473 63.0811C176.377 63.0811 178.73 65.4346 178.73 68.3378C178.73 71.2412 176.377 73.5946 173.473 73.5946C170.57 73.5946 168.217 71.2412 168.217 68.3378C168.217 65.4346 170.57 63.0811 173.473 63.0811Z" fill="black"/>
<path d="M183.986 63.0811C186.89 63.0811 189.243 65.4346 189.243 68.3378C189.243 71.2412 186.89 73.5946 183.986 73.5946C181.083 73.5946 178.73 71.2412 178.73 68.3378C178.73 65.4346 181.083 63.0811 183.986 63.0811Z" fill="black"/>
<path d="M194.5 63.0811C197.404 63.0811 199.757 65.4346 199.757 68.3378C199.757 71.2412 197.404 73.5946 194.5 73.5946C191.597 73.5946 189.243 71.2412 189.243 68.3378C189.243 65.4346 191.597 63.0811 194.5 63.0811Z" fill="black"/>
<path d="M215.528 63.0811C218.431 63.0811 220.784 65.4346 220.784 68.3378C220.784 71.2412 218.431 73.5946 215.528 73.5946C212.624 73.5946 210.271 71.2412 210.271 68.3378C210.271 65.4346 212.624 63.0811 215.528 63.0811Z" fill="black"/>
<path d="M236.554 63.0811C239.458 63.0811 241.811 65.4346 241.811 68.3378C241.811 71.2412 239.458 73.5946 236.554 73.5946C233.651 73.5946 231.298 71.2412 231.298 68.3378C231.298 65.4346 233.651 63.0811 236.554 63.0811Z" fill="black"/>
<path d="M247.068 63.0811C249.971 63.0811 252.325 65.4346 252.325 68.3378C252.325 71.2412 249.971 73.5946 247.068 73.5946C244.165 73.5946 241.811 71.2412 241.811 68.3378C241.811 65.4346 244.165 63.0811 247.068 63.0811Z" fill="black"/>
<path d="M268.095 63.0811C270.998 63.0811 273.352 65.4346 273.352 68.3378C273.352 71.2412 270.998 73.5946 268.095 73.5946C265.192 73.5946 262.838 71.2412 262.838 68.3378C262.838 65.4346 265.192 63.0811 268.095 63.0811Z" fill="black"/>
<path d="M278.608 63.0811C281.512 63.0811 283.865 65.4346 283.865 68.3378C283.865 71.2412 281.512 73.5946 278.608 73.5946C275.705 73.5946 273.352 71.2412 273.352 68.3378C273.352 65.4346 275.705 63.0811 278.608 63.0811Z" fill="black"/>
<path d="M141.933 73.5946C144.836 73.5946 147.19 75.9482 147.19 78.8514C147.19 81.7547 144.836 84.1081 141.933 84.1081C139.03 84.1081 136.676 81.7547 136.676 78.8514C136.676 75.9482 139.03 73.5946 141.933 73.5946Z" fill="black"/>
<path d="M152.446 73.5946C155.35 73.5946 157.703 75.9482 157.703 78.8514C157.703 81.7547 155.35 84.1081 152.446 84.1081C149.543 84.1081 147.189 81.7547 147.189 78.8514C147.189 75.9482 149.543 73.5946 152.446 73.5946Z" fill="black"/>
<path d="M194.5 73.5946C197.404 73.5946 199.757 75.9482 199.757 78.8514C199.757 81.7547 197.404 84.1081 194.5 84.1081C191.597 84.1081 189.243 81.7547 189.243 78.8514C189.243 75.9482 191.597 73.5946 194.5 73.5946Z" fill="black"/>
<path d="M215.528 73.5946C218.431 73.5946 220.784 75.9482 220.784 78.8514C220.784 81.7547 218.431 84.1081 215.528 84.1081C212.624 84.1081 210.271 81.7547 210.271 78.8514C210.271 75.9482 212.624 73.5946 215.528 73.5946Z" fill="black"/>
<path d="M226.041 73.5946C228.944 73.5946 231.297 75.9482 231.297 78.8514C231.297 81.7547 228.944 84.1081 226.041 84.1081C223.137 84.1081 220.784 81.7547 220.784 78.8514C220.784 75.9482 223.137 73.5946 226.041 73.5946Z" fill="black"/>
<path d="M268.095 73.5946C270.998 73.5946 273.352 75.9482 273.352 78.8514C273.352 81.7547 270.998 84.1081 268.095 84.1081C265.192 84.1081 262.838 81.7547 262.838 78.8514C262.838 75.9482 265.192 73.5946 268.095 73.5946Z" fill="black"/>
<path d="M110.392 84.1082C113.295 84.1082 115.649 86.4617 115.649 89.3649C115.649 92.2683 113.295 94.6217 110.392 94.6217C107.489 94.6217 105.135 92.2683 105.135 89.3649C105.135 86.4617 107.489 84.1082 110.392 84.1082Z" fill="black"/>
<path d="M131.419 84.1082C134.322 84.1082 136.676 86.4617 136.676 89.3649C136.676 92.2683 134.322 94.6217 131.419 94.6217C128.516 94.6217 126.162 92.2683 126.162 89.3649C126.162 86.4617 128.516 84.1082 131.419 84.1082Z" fill="black"/>
<path d="M152.446 84.1082C155.35 84.1082 157.703 86.4617 157.703 89.3649C157.703 92.2683 155.35 94.6217 152.446 94.6217C149.543 94.6217 147.189 92.2683 147.189 89.3649C147.189 86.4617 149.543 84.1082 152.446 84.1082Z" fill="black"/>
<path d="M173.473 84.1082C176.377 84.1082 178.73 86.4617 178.73 89.3649C178.73 92.2683 176.377 94.6217 173.473 94.6217C170.57 94.6217 168.217 92.2683 168.217 89.3649C168.217 86.4617 170.57 84.1082 173.473 84.1082Z" fill="black"/>
<path d="M194.5 84.1082C197.404 84.1082 199.757 86.4617 199.757 89.3649C199.757 92.2683 197.404 94.6217 194.5 94.6217C191.597 94.6217 189.243 92.2683 189.243 89.3649C189.243 86.4617 191.597 84.1082 194.5 84.1082Z" fill="black"/>
<path d="M215.528 84.1082C218.431 84.1082 220.784 86.4617 220.784 89.3649C220.784 92.2683 218.431 94.6217 215.528 94.6217C212.624 94.6217 210.271 92.2683 210.271 89.3649C210.271 86.4617 212.624 84.1082 215.528 84.1082Z" fill="black"/>
<path d="M236.554 84.1082C239.458 84.1082 241.811 86.4617 241.811 89.3649C241.811 92.2683 239.458 94.6217 236.554 94.6217C233.651 94.6217 231.298 92.2683 231.298 89.3649C231.298 86.4617 233.651 84.1082 236.554 84.1082Z" fill="black"/>
<path d="M257.581 84.1082C260.485 84.1082 262.838 86.4617 262.838 89.3649C262.838 92.2683 260.485 94.6217 257.581 94.6217C254.678 94.6217 252.324 92.2683 252.324 89.3649C252.324 86.4617 254.678 84.1082 257.581 84.1082Z" fill="black"/>
<path d="M278.608 84.1082C281.512 84.1082 283.865 86.4617 283.865 89.3649C283.865 92.2683 281.512 94.6217 278.608 94.6217C275.705 94.6217 273.352 92.2683 273.352 89.3649C273.352 86.4617 275.705 84.1082 278.608 84.1082Z" fill="black"/>
<path d="M110.392 94.6216C113.295 94.6216 115.649 96.9751 115.649 99.8783C115.649 102.782 113.295 105.135 110.392 105.135C107.489 105.135 105.135 102.782 105.135 99.8783C105.135 96.9751 107.489 94.6216 110.392 94.6216Z" fill="black"/>
<path d="M131.419 94.6216C134.322 94.6216 136.676 96.9751 136.676 99.8783C136.676 102.782 134.322 105.135 131.419 105.135C128.516 105.135 126.162 102.782 126.162 99.8783C126.162 96.9751 128.516 94.6216 131.419 94.6216Z" fill="black"/>
<path d="M141.933 94.6216C144.836 94.6216 147.19 96.9751 147.19 99.8783C147.19 102.782 144.836 105.135 141.933 105.135C139.03 105.135 136.676 102.782 136.676 99.8783C136.676 96.9751 139.03 94.6216 141.933 94.6216Z" fill="black"/>
<path d="M152.446 94.6216C155.35 94.6216 157.703 96.9751 157.703 99.8783C157.703 102.782 155.35 105.135 152.446 105.135C149.543 105.135 147.189 102.782 147.189 99.8783C147.189 96.9751 149.543 94.6216 152.446 94.6216Z" fill="black"/>
<path d="M162.96 94.6216C165.863 94.6216 168.216 96.9751 168.216 99.8783C168.216 102.782 165.863 105.135 162.96 105.135C160.056 105.135 157.703 102.782 157.703 99.8783C157.703 96.9751 160.056 94.6216 162.96 94.6216Z" fill="black"/>
<path d="M173.473 94.6216C176.377 94.6216 178.73 96.9751 178.73 99.8783C178.73 102.782 176.377 105.135 173.473 105.135C170.57 105.135 168.217 102.782 168.217 99.8783C168.217 96.9751 170.57 94.6216 173.473 94.6216Z" fill="black"/>
<path d="M205.014 94.6216C207.917 94.6216 210.271 96.9751 210.271 99.8783C210.271 102.782 207.917 105.135 205.014 105.135C202.111 105.135 199.757 102.782 199.757 99.8783C199.757 96.9751 202.111 94.6216 205.014 94.6216Z" fill="black"/>
<path d="M226.041 94.6216C228.944 94.6216 231.297 96.9751 231.297 99.8783C231.297 102.782 228.944 105.135 226.041 105.135C223.137 105.135 220.784 102.782 220.784 99.8783C220.784 96.9751 223.137 94.6216 226.041 94.6216Z" fill="black"/>
<path d="M257.581 94.6216C260.485 94.6216 262.838 96.9751 262.838 99.8783C262.838 102.782 260.485 105.135 257.581 105.135C254.678 105.135 252.324 102.782 252.324 99.8783C252.324 96.9751 254.678 94.6216 257.581 94.6216Z" fill="black"/>
<path d="M278.608 94.6216C281.512 94.6216 283.865 96.9751 283.865 99.8783C283.865 102.782 281.512 105.135 278.608 105.135C275.705 105.135 273.352 102.782 273.352 99.8783C273.352 96.9751 275.705 94.6216 278.608 94.6216Z" fill="black"/>
<path d="M47.311 105.135C50.2143 105.135 52.5677 107.489 52.5677 110.392C52.5677 113.295 50.2143 115.649 47.311 115.649C44.4078 115.649 42.0542 113.295 42.0542 110.392C42.0542 107.489 44.4078 105.135 47.311 105.135Z" fill="black"/>
<path d="M57.8246 105.135C60.728 105.135 63.0814 107.489 63.0814 110.392C63.0814 113.295 60.728 115.649 57.8246 115.649C54.9214 115.649 52.5679 113.295 52.5679 110.392C52.5679 107.489 54.9214 105.135 57.8246 105.135Z" fill="black"/>
<path d="M89.3652 105.135C92.2685 105.135 94.6219 107.489 94.6219 110.392C94.6219 113.295 92.2685 115.649 89.3652 115.649C86.462 115.649 84.1084 113.295 84.1084 110.392C84.1084 107.489 86.462 105.135 89.3652 105.135Z" fill="black"/>
<path d="M99.8786 105.135C102.782 105.135 105.135 107.489 105.135 110.392C105.135 113.295 102.782 115.649 99.8786 115.649C96.9754 115.649 94.6218 113.295 94.6218 110.392C94.6218 107.489 96.9754 105.135 99.8786 105.135Z" fill="black"/>
<path d="M110.392 105.135C113.295 105.135 115.649 107.489 115.649 110.392C115.649 113.295 113.295 115.649 110.392 115.649C107.489 115.649 105.135 113.295 105.135 110.392C105.135 107.489 107.489 105.135 110.392 105.135Z" fill="black"/>
<path d="M141.933 105.135C144.836 105.135 147.19 107.489 147.19 110.392C147.19 113.295 144.836 115.649 141.933 115.649C139.03 115.649 136.676 113.295 136.676 110.392C136.676 107.489 139.03 105.135 141.933 105.135Z" fill="black"/>
<path d="M183.986 105.135C186.89 105.135 189.243 107.489 189.243 110.392C189.243 113.295 186.89 115.649 183.986 115.649C181.083 115.649 178.73 113.295 178.73 110.392C178.73 107.489 181.083 105.135 183.986 105.135Z" fill="black"/>
<path d="M194.5 105.135C197.404 105.135 199.757 107.489 199.757 110.392C199.757 113.295 197.404 115.649 194.5 115.649C191.597 115.649 189.243 113.295 189.243 110.392C189.243 107.489 191.597 105.135 194.5 105.135Z" fill="black"/>
<path d="M205.014 105.135C207.917 105.135 210.271 107.489 210.271 110.392C210.271 113.295 207.917 115.649 205.014 115.649C202.111 115.649 199.757 113.295 199.757 110.392C199.757 107.489 202.111 105.135 205.014 105.135Z" fill="black"/>
<path d="M215.528 105.135C218.431 105.135 220.784 107.489 220.784 110.392C220.784 113.295 218.431 115.649 215.528 115.649C212.624 115.649 210.271 113.295 210.271 110.392C210.271 107.489 212.624 105.135 215.528 105.135Z" fill="black"/>
<path d="M226.041 105.135C228.944 105.135 231.297 107.489 231.297 110.392C231.297 113.295 228.944 115.649 226.041 115.649C223.137 115.649 220.784 113.295 220.784 110.392C220.784 107.489 223.137 105.135 226.041 105.135Z" fill="black"/>
<path d="M236.554 105.135C239.458 105.135 241.811 107.489 241.811 110.392C241.811 113.295 239.458 115.649 236.554 115.649C233.651 115.649 231.298 113.295 231.298 110.392C231.298 107.489 233.651 105.135 236.554 105.135Z" fill="black"/>
<path d="M247.068 105.135C249.971 105.135 252.325 107.489 252.325 110.392C252.325 113.295 249.971 115.649 247.068 115.649C244.165 115.649 241.811 113.295 241.811 110.392C241.811 107.489 244.165 105.135 247.068 105.135Z" fill="black"/>
<path d="M268.095 105.135C270.998 105.135 273.352 107.489 273.352 110.392C273.352 113.295 270.998 115.649 268.095 115.649C265.192 115.649 262.838 113.295 262.838 110.392C262.838 107.489 265.192 105.135 268.095 105.135Z" fill="black"/>
<path d="M289.122 105.135C292.025 105.135 294.379 107.489 294.379 110.392C294.379 113.295 292.025 115.649 289.122 115.649C286.219 115.649 283.865 113.295 283.865 110.392C283.865 107.489 286.219 105.135 289.122 105.135Z" fill="black"/>
<path d="M299.635 105.135C302.539 105.135 304.892 107.489 304.892 110.392C304.892 113.295 302.539 115.649 299.635 115.649C296.732 115.649 294.379 113.295 294.379 110.392C294.379 107.489 296.732 105.135 299.635 105.135Z" fill="black"/>
<path d="M320.663 105.135C323.566 105.135 325.919 107.489 325.919 110.392C325.919 113.295 323.566 115.649 320.663 115.649C317.759 115.649 315.406 113.295 315.406 110.392C315.406 107.489 317.759 105.135 320.663 105.135Z" fill="black"/>
<path d="M26.2841 115.649C29.1874 115.649 31.5409 118.002 31.5409 120.905C31.5409 123.809 29.1874 126.162 26.2841 126.162C23.3809 126.162 21.0273 123.809 21.0273 120.905C21.0273 118.002 23.3809 115.649 26.2841 115.649Z" fill="black"/>
<path d="M57.8246 115.649C60.728 115.649 63.0814 118.002 63.0814 120.905C63.0814 123.809 60.728 126.162 57.8246 126.162C54.9214 126.162 52.5679 123.809 52.5679 120.905C52.5679 118.002 54.9214 115.649 57.8246 115.649Z" fill="black"/>
<path d="M68.3381 115.649C71.2414 115.649 73.5948 118.002 73.5948 120.905C73.5948 123.809 71.2414 126.162 68.3381 126.162C65.4349 126.162 63.0813 123.809 63.0813 120.905C63.0813 118.002 65.4349 115.649 68.3381 115.649Z" fill="black"/>
<path d="M78.8515 115.649C81.7548 115.649 84.1082 118.002 84.1082 120.905C84.1082 123.809 81.7548 126.162 78.8515 126.162C75.9483 126.162 73.5947 123.809 73.5947 120.905C73.5947 118.002 75.9483 115.649 78.8515 115.649Z" fill="black"/>
<path d="M141.933 115.649C144.836 115.649 147.19 118.002 147.19 120.905C147.19 123.809 144.836 126.162 141.933 126.162C139.03 126.162 136.676 123.809 136.676 120.905C136.676 118.002 139.03 115.649 141.933 115.649Z" fill="black"/>
<path d="M152.446 115.649C155.35 115.649 157.703 118.002 157.703 120.905C157.703 123.809 155.35 126.162 152.446 126.162C149.543 126.162 147.189 123.809 147.189 120.905C147.189 118.002 149.543 115.649 152.446 115.649Z" fill="black"/>
<path d="M183.986 115.649C186.89 115.649 189.243 118.002 189.243 120.905C189.243 123.809 186.89 126.162 183.986 126.162C181.083 126.162 178.73 123.809 178.73 120.905C178.73 118.002 181.083 115.649 183.986 115.649Z" fill="black"/>
<path d="M205.014 115.649C207.917 115.649 210.271 118.002 210.271 120.905C210.271 123.809 207.917 126.162 205.014 126.162C202.111 126.162 199.757 123.809 199.757 120.905C199.757 118.002 202.111 115.649 205.014 115.649Z" fill="black"/>
<path d="M215.528 115.649C218.431 115.649 220.784 118.002 220.784 120.905C220.784 123.809 218.431 126.162 215.528 126.162C212.624 126.162 210.271 123.809 210.271 120.905C210.271 118.002 212.624 115.649 215.528 115.649Z" fill="black"/>
<path d="M236.554 115.649C239.458 115.649 241.811 118.002 241.811 120.905C241.811 123.809 239.458 126.162 236.554 126.162C233.651 126.162 231.298 123.809 231.298 120.905C231.298 118.002 233.651 115.649 236.554 115.649Z" fill="black"/>
<path d="M247.068 115.649C249.971 115.649 252.325 118.002 252.325 120.905C252.325 123.809 249.971 126.162 247.068 126.162C244.165 126.162 241.811 123.809 241.811 120.905C241.811 118.002 244.165 115.649 247.068 115.649Z" fill="black"/>
<path d="M268.095 115.649C270.998 115.649 273.352 118.002 273.352 120.905C273.352 123.809 270.998 126.162 268.095 126.162C265.192 126.162 262.838 123.809 262.838 120.905C262.838 118.002 265.192 115.649 268.095 115.649Z" fill="black"/>
<path d="M289.122 115.649C292.025 115.649 294.379 118.002 294.379 120.905C294.379 123.809 292.025 126.162 289.122 126.162C286.219 126.162 283.865 123.809 283.865 120.905C283.865 118.002 286.219 115.649 289.122 115.649Z" fill="black"/>
<path d="M299.635 115.649C302.539 115.649 304.892 118.002 304.892 120.905C304.892 123.809 302.539 126.162 299.635 126.162C296.732 126.162 294.379 123.809 294.379 120.905C294.379 118.002 296.732 115.649 299.635 115.649Z" fill="black"/>
<path d="M331.176 115.649C334.079 115.649 336.433 118.002 336.433 120.905C336.433 123.809 334.079 126.162 331.176 126.162C328.273 126.162 325.919 123.809 325.919 120.905C325.919 118.002 328.273 115.649 331.176 115.649Z" fill="black"/>
<path d="M362.716 115.649C365.62 115.649 367.973 118.002 367.973 120.905C367.973 123.809 365.62 126.162 362.716 126.162C359.813 126.162 357.46 123.809 357.46 120.905C357.46 118.002 359.813 115.649 362.716 115.649Z" fill="black"/>
<path d="M36.7975 126.162C39.7009 126.162 42.0543 128.516 42.0543 131.419C42.0543 134.322 39.7009 136.676 36.7975 136.676C33.8943 136.676 31.5408 134.322 31.5408 131.419C31.5408 128.516 33.8943 126.162 36.7975 126.162Z" fill="black"/>
<path d="M78.8515 126.162C81.7548 126.162 84.1082 128.516 84.1082 131.419C84.1082 134.322 81.7548 136.676 78.8515 136.676C75.9483 136.676 73.5947 134.322 73.5947 131.419C73.5947 128.516 75.9483 126.162 78.8515 126.162Z" fill="black"/>
<path d="M89.3652 126.162C92.2685 126.162 94.6219 128.516 94.6219 131.419C94.6219 134.322 92.2685 136.676 89.3652 136.676C86.462 136.676 84.1084 134.322 84.1084 131.419C84.1084 128.516 86.462 126.162 89.3652 126.162Z" fill="black"/>
<path d="M120.906 126.162C123.809 126.162 126.162 128.516 126.162 131.419C126.162 134.322 123.809 136.676 120.906 136.676C118.002 136.676 115.649 134.322 115.649 131.419C115.649 128.516 118.002 126.162 120.906 126.162Z" fill="black"/>
<path d="M131.419 126.162C134.322 126.162 136.676 128.516 136.676 131.419C136.676 134.322 134.322 136.676 131.419 136.676C128.516 136.676 126.162 134.322 126.162 131.419C126.162 128.516 128.516 126.162 131.419 126.162Z" fill="black"/>
<path d="M141.933 126.162C144.836 126.162 147.19 128.516 147.19 131.419C147.19 134.322 144.836 136.676 141.933 136.676C139.03 136.676 136.676 134.322 136.676 131.419C136.676 128.516 139.03 126.162 141.933 126.162Z" fill="black"/>
<path d="M152.446 126.162C155.35 126.162 157.703 128.516 157.703 131.419C157.703 134.322 155.35 136.676 152.446 136.676C149.543 136.676 147.189 134.322 147.189 131.419C147.189 128.516 149.543 126.162 152.446 126.162Z" fill="black"/>
<path d="M183.986 126.162C186.89 126.162 189.243 128.516 189.243 131.419C189.243 134.322 186.89 136.676 183.986 136.676C181.083 136.676 178.73 134.322 178.73 131.419C178.73 128.516 181.083 126.162 183.986 126.162Z" fill="black"/>
<path d="M194.5 126.162C197.404 126.162 199.757 128.516 199.757 131.419C199.757 134.322 197.404 136.676 194.5 136.676C191.597 136.676 189.243 134.322 189.243 131.419C189.243 128.516 191.597 126.162 194.5 126.162Z" fill="black"/>
<path d="M205.014 126.162C207.917 126.162 210.271 128.516 210.271 131.419C210.271 134.322 207.917 136.676 205.014 136.676C202.111 136.676 199.757 134.322 199.757 131.419C199.757 128.516 202.111 126.162 205.014 126.162Z" fill="black"/>
<path d="M226.041 126.162C228.944 126.162 231.297 128.516 231.297 131.419C231.297 134.322 228.944 136.676 226.041 136.676C223.137 136.676 220.784 134.322 220.784 131.419C220.784 128.516 223.137 126.162 226.041 126.162Z" fill="black"/>
<path d="M268.095 126.162C270.998 126.162 273.352 128.516 273.352 131.419C273.352 134.322 270.998 136.676 268.095 136.676C265.192 136.676 262.838 134.322 262.838 131.419C262.838 128.516 265.192 126.162 268.095 126.162Z" fill="black"/>
<path d="M289.122 126.162C292.025 126.162 294.379 128.516 294.379 131.419C294.379 134.322 292.025 136.676 289.122 136.676C286.219 136.676 283.865 134.322 283.865 131.419C283.865 128.516 286.219 126.162 289.122 126.162Z" fill="black"/>
<path d="M341.689 126.162C344.593 126.162 346.946 128.516 346.946 131.419C346.946 134.322 344.593 136.676 341.689 136.676C338.786 136.676 336.433 134.322 336.433 131.419C336.433 128.516 338.786 126.162 341.689 126.162Z" fill="black"/>
<path d="M352.203 126.162C355.106 126.162 357.46 128.516 357.46 131.419C357.46 134.322 355.106 136.676 352.203 136.676C349.3 136.676 346.946 134.322 346.946 131.419C346.946 128.516 349.3 126.162 352.203 126.162Z" fill="black"/>
<path d="M362.716 126.162C365.62 126.162 367.973 128.516 367.973 131.419C367.973 134.322 365.62 136.676 362.716 136.676C359.813 136.676 357.46 134.322 357.46 131.419C357.46 128.516 359.813 126.162 362.716 126.162Z" fill="black"/>
<path d="M26.2841 136.676C29.1874 136.676 31.5409 139.029 31.5409 141.932C31.5409 144.836 29.1874 147.189 26.2841 147.189C23.3809 147.189 21.0273 144.836 21.0273 141.932C21.0273 139.029 23.3809 136.676 26.2841 136.676Z" fill="black"/>
<path d="M47.311 136.676C50.2143 136.676 52.5677 139.029 52.5677 141.932C52.5677 144.836 50.2143 147.189 47.311 147.189C44.4078 147.189 42.0542 144.836 42.0542 141.932C42.0542 139.029 44.4078 136.676 47.311 136.676Z" fill="black"/>
<path d="M110.392 136.676C113.295 136.676 115.649 139.029 115.649 141.932C115.649 144.836 113.295 147.189 110.392 147.189C107.489 147.189 105.135 144.836 105.135 141.932C105.135 139.029 107.489 136.676 110.392 136.676Z" fill="black"/>
<path d="M120.906 136.676C123.809 136.676 126.162 139.029 126.162 141.932C126.162 144.836 123.809 147.189 120.906 147.189C118.002 147.189 115.649 144.836 115.649 141.932C115.649 139.029 118.002 136.676 120.906 136.676Z" fill="black"/>
<path d="M131.419 136.676C134.322 136.676 136.676 139.029 136.676 141.932C136.676 144.836 134.322 147.189 131.419 147.189C128.516 147.189 126.162 144.836 126.162 141.932C126.162 139.029 128.516 136.676 131.419 136.676Z" fill="black"/>
<path d="M268.095 136.676C270.998 136.676 273.352 139.029 273.352 141.932C273.352 144.836 270.998 147.189 268.095 147.189C265.192 147.189 262.838 144.836 262.838 141.932C262.838 139.029 265.192 136.676 268.095 136.676Z" fill="black"/>
<path d="M289.122 136.676C292.025 136.676 294.379 139.029 294.379 141.932C294.379 144.836 292.025 147.189 289.122 147.189C286.219 147.189 283.865 144.836 283.865 141.932C283.865 139.029 286.219 136.676 289.122 136.676Z" fill="black"/>
<path d="M310.149 136.676C313.052 136.676 315.406 139.029 315.406 141.932C315.406 144.836 313.052 147.189 310.149 147.189C307.246 147.189 304.892 144.836 304.892 141.932C304.892 139.029 307.246 136.676 310.149 136.676Z" fill="black"/>
<path d="M320.663 136.676C323.566 136.676 325.919 139.029 325.919 141.932C325.919 144.836 323.566 147.189 320.663 147.189C317.759 147.189 315.406 144.836 315.406 141.932C315.406 139.029 317.759 136.676 320.663 136.676Z" fill="black"/>
<path d="M362.716 136.676C365.62 136.676 367.973 139.029 367.973 141.932C367.973 144.836 365.62 147.189 362.716 147.189C359.813 147.189 357.46 144.836 357.46 141.932C357.46 139.029 359.813 136.676 362.716 136.676Z" fill="black"/>
<path d="M26.2841 147.189C29.1874 147.189 31.5409 149.543 31.5409 152.446C31.5409 155.349 29.1874 157.703 26.2841 157.703C23.3809 157.703 21.0273 155.349 21.0273 152.446C21.0273 149.543 23.3809 147.189 26.2841 147.189Z" fill="black"/>
<path d="M36.7975 147.189C39.7009 147.189 42.0543 149.543 42.0543 152.446C42.0543 155.349 39.7009 157.703 36.7975 157.703C33.8943 157.703 31.5408 155.349 31.5408 152.446C31.5408 149.543 33.8943 147.189 36.7975 147.189Z" fill="black"/>
<path d="M68.3381 147.189C71.2414 147.189 73.5948 149.543 73.5948 152.446C73.5948 155.349 71.2414 157.703 68.3381 157.703C65.4349 157.703 63.0813 155.349 63.0813 152.446C63.0813 149.543 65.4349 147.189 68.3381 147.189Z" fill="black"/>
<path d="M78.8515 147.189C81.7548 147.189 84.1082 149.543 84.1082 152.446C84.1082 155.349 81.7548 157.703 78.8515 157.703C75.9483 157.703 73.5947 155.349 73.5947 152.446C73.5947 149.543 75.9483 147.189 78.8515 147.189Z" fill="black"/>
<path d="M89.3652 147.189C92.2685 147.189 94.6219 149.543 94.6219 152.446C94.6219 155.349 92.2685 157.703 89.3652 157.703C86.462 157.703 84.1084 155.349 84.1084 152.446C84.1084 149.543 86.462 147.189 89.3652 147.189Z" fill="black"/>
<path d="M99.8786 147.189C102.782 147.189 105.135 149.543 105.135 152.446C105.135 155.349 102.782 157.703 99.8786 157.703C96.9754 157.703 94.6218 155.349 94.6218 152.446C94.6218 149.543 96.9754 147.189 99.8786 147.189Z" fill="black"/>
<path d="M120.906 147.189C123.809 147.189 126.162 149.543 126.162 152.446C126.162 155.349 123.809 157.703 120.906 157.703C118.002 157.703 115.649 155.349 115.649 152.446C115.649 149.543 118.002 147.189 120.906 147.189Z" fill="black"/>
<path d="M131.419 147.189C134.322 147.189 136.676 149.543 136.676 152.446C136.676 155.349 134.322 157.703 131.419 157.703C128.516 157.703 126.162 155.349 126.162 152.446C126.162 149.543 128.516 147.189 131.419 147.189Z" fill="black"/>
<path d="M268.095 147.189C270.998 147.189 273.352 149.543 273.352 152.446C273.352 155.349 270.998 157.703 268.095 157.703C265.192 157.703 262.838 155.349 262.838 152.446C262.838 149.543 265.192 147.189 268.095 147.189Z" fill="black"/>
<path d="M278.608 147.189C281.512 147.189 283.865 149.543 283.865 152.446C283.865 155.349 281.512 157.703 278.608 157.703C275.705 157.703 273.352 155.349 273.352 152.446C273.352 149.543 275.705 147.189 278.608 147.189Z" fill="black"/>
<path d="M289.122 147.189C292.025 147.189 294.379 149.543 294.379 152.446C294.379 155.349 292.025 157.703 289.122 157.703C286.219 157.703 283.865 155.349 283.865 152.446C283.865 149.543 286.219 147.189 289.122 147.189Z" fill="black"/>
<path d="M352.203 147.189C355.106 147.189 357.46 149.543 357.46 152.446C357.46 155.349 355.106 157.703 352.203 157.703C349.3 157.703 346.946 155.349 346.946 152.446C346.946 149.543 349.3 147.189 352.203 147.189Z" fill="black"/>
<path d="M362.716 147.189C365.62 147.189 367.973 149.543 367.973 152.446C367.973 155.349 365.62 157.703 362.716 157.703C359.813 157.703 357.46 155.349 357.46 152.446C357.46 149.543 359.813 147.189 362.716 147.189Z" fill="black"/>
<path d="M26.2841 157.703C29.1874 157.703 31.5409 160.056 31.5409 162.959C31.5409 165.863 29.1874 168.216 26.2841 168.216C23.3809 168.216 21.0273 165.863 21.0273 162.959C21.0273 160.056 23.3809 157.703 26.2841 157.703Z" fill="black"/>
<path d="M57.8246 157.703C60.728 157.703 63.0814 160.056 63.0814 162.959C63.0814 165.863 60.728 168.216 57.8246 168.216C54.9214 168.216 52.5679 165.863 52.5679 162.959C52.5679 160.056 54.9214 157.703 57.8246 157.703Z" fill="black"/>
<path d="M78.8515 157.703C81.7548 157.703 84.1082 160.056 84.1082 162.959C84.1082 165.863 81.7548 168.216 78.8515 168.216C75.9483 168.216 73.5947 165.863 73.5947 162.959C73.5947 160.056 75.9483 157.703 78.8515 157.703Z" fill="black"/>
<path d="M99.8786 157.703C102.782 157.703 105.135 160.056 105.135 162.959C105.135 165.863 102.782 168.216 99.8786 168.216C96.9754 168.216 94.6218 165.863 94.6218 162.959C94.6218 160.056 96.9754 157.703 99.8786 157.703Z" fill="black"/>
<path d="M110.392 157.703C113.295 157.703 115.649 160.056 115.649 162.959C115.649 165.863 113.295 168.216 110.392 168.216C107.489 168.216 105.135 165.863 105.135 162.959C105.135 160.056 107.489 157.703 110.392 157.703Z" fill="black"/>
<path d="M120.906 157.703C123.809 157.703 126.162 160.056 126.162 162.959C126.162 165.863 123.809 168.216 120.906 168.216C118.002 168.216 115.649 165.863 115.649 162.959C115.649 160.056 118.002 157.703 120.906 157.703Z" fill="black"/>
<path d="M131.419 157.703C134.322 157.703 136.676 160.056 136.676 162.959C136.676 165.863 134.322 168.216 131.419 168.216C128.516 168.216 126.162 165.863 126.162 162.959C126.162 160.056 128.516 157.703 131.419 157.703Z" fill="black"/>
<path d="M257.581 157.703C260.485 157.703 262.838 160.056 262.838 162.959C262.838 165.863 260.485 168.216 257.581 168.216C254.678 168.216 252.324 165.863 252.324 162.959C252.324 160.056 254.678 157.703 257.581 157.703Z" fill="black"/>
<path d="M278.608 157.703C281.512 157.703 283.865 160.056 283.865 162.959C283.865 165.863 281.512 168.216 278.608 168.216C275.705 168.216 273.352 165.863 273.352 162.959C273.352 160.056 275.705 157.703 278.608 157.703Z" fill="black"/>
<path d="M331.176 157.703C334.079 157.703 336.433 160.056 336.433 162.959C336.433 165.863 334.079 168.216 331.176 168.216C328.273 168.216 325.919 165.863 325.919 162.959C325.919 160.056 328.273 157.703 331.176 157.703Z" fill="black"/>
<path d="M36.7975 168.216C39.7009 168.216 42.0543 170.57 42.0543 173.473C42.0543 176.376 39.7009 178.73 36.7975 178.73C33.8943 178.73 31.5408 176.376 31.5408 173.473C31.5408 170.57 33.8943 168.216 36.7975 168.216Z" fill="black"/>
<path d="M47.311 168.216C50.2143 168.216 52.5677 170.57 52.5677 173.473C52.5677 176.376 50.2143 178.73 47.311 178.73C44.4078 178.73 42.0542 176.376 42.0542 173.473C42.0542 170.57 44.4078 168.216 47.311 168.216Z" fill="black"/>
<path d="M57.8246 168.216C60.728 168.216 63.0814 170.57 63.0814 173.473C63.0814 176.376 60.728 178.73 57.8246 178.73C54.9214 178.73 52.5679 176.376 52.5679 173.473C52.5679 170.57 54.9214 168.216 57.8246 168.216Z" fill="black"/>
<path d="M68.3381 168.216C71.2414 168.216 73.5948 170.57 73.5948 173.473C73.5948 176.376 71.2414 178.73 68.3381 178.73C65.4349 178.73 63.0813 176.376 63.0813 173.473C63.0813 170.57 65.4349 168.216 68.3381 168.216Z" fill="black"/>
<path d="M89.3652 168.216C92.2685 168.216 94.6219 170.57 94.6219 173.473C94.6219 176.376 92.2685 178.73 89.3652 178.73C86.462 178.73 84.1084 176.376 84.1084 173.473C84.1084 170.57 86.462 168.216 89.3652 168.216Z" fill="black"/>
<path d="M99.8786 168.216C102.782 168.216 105.135 170.57 105.135 173.473C105.135 176.376 102.782 178.73 99.8786 178.73C96.9754 178.73 94.6218 176.376 94.6218 173.473C94.6218 170.57 96.9754 168.216 99.8786 168.216Z" fill="black"/>
<path d="M110.392 168.216C113.295 168.216 115.649 170.57 115.649 173.473C115.649 176.376 113.295 178.73 110.392 178.73C107.489 178.73 105.135 176.376 105.135 173.473C105.135 170.57 107.489 168.216 110.392 168.216Z" fill="black"/>
<path d="M120.906 168.216C123.809 168.216 126.162 170.57 126.162 173.473C126.162 176.376 123.809 178.73 120.906 178.73C118.002 178.73 115.649 176.376 115.649 173.473C115.649 170.57 118.002 168.216 120.906 168.216Z" fill="black"/>
<path d="M289.122 168.216C292.025 168.216 294.379 170.57 294.379 173.473C294.379 176.376 292.025 178.73 289.122 178.73C286.219 178.73 283.865 176.376 283.865 173.473C283.865 170.57 286.219 168.216 289.122 168.216Z" fill="black"/>
<path d="M310.149 168.216C313.052 168.216 315.406 170.57 315.406 173.473C315.406 176.376 313.052 178.73 310.149 178.73C307.246 178.73 304.892 176.376 304.892 173.473C304.892 170.57 307.246 168.216 310.149 168.216Z" fill="black"/>
<path d="M320.663 168.216C323.566 168.216 325.919 170.57 325.919 173.473C325.919 176.376 323.566 178.73 320.663 178.73C317.759 178.73 315.406 176.376 315.406 173.473C315.406 170.57 317.759 168.216 320.663 168.216Z" fill="black"/>
<path d="M331.176 168.216C334.079 168.216 336.433 170.57 336.433 173.473C336.433 176.376 334.079 178.73 331.176 178.73C328.273 178.73 325.919 176.376 325.919 173.473C325.919 170.57 328.273 168.216 331.176 168.216Z" fill="black"/>
<path d="M26.2841 178.73C29.1874 178.73 31.5409 181.083 31.5409 183.986C31.5409 186.89 29.1874 189.243 26.2841 189.243C23.3809 189.243 21.0273 186.89 21.0273 183.986C21.0273 181.083 23.3809 178.73 26.2841 178.73Z" fill="black"/>
<path d="M36.7975 178.73C39.7009 178.73 42.0543 181.083 42.0543 183.986C42.0543 186.89 39.7009 189.243 36.7975 189.243C33.8943 189.243 31.5408 186.89 31.5408 183.986C31.5408 181.083 33.8943 178.73 36.7975 178.73Z" fill="black"/>
<path d="M68.3381 178.73C71.2414 178.73 73.5948 181.083 73.5948 183.986C73.5948 186.89 71.2414 189.243 68.3381 189.243C65.4349 189.243 63.0813 186.89 63.0813 183.986C63.0813 181.083 65.4349 178.73 68.3381 178.73Z" fill="black"/>
<path d="M99.8786 178.73C102.782 178.73 105.135 181.083 105.135 183.986C105.135 186.89 102.782 189.243 99.8786 189.243C96.9754 189.243 94.6218 186.89 94.6218 183.986C94.6218 181.083 96.9754 178.73 99.8786 178.73Z" fill="black"/>
<path d="M131.419 178.73C134.322 178.73 136.676 181.083 136.676 183.986C136.676 186.89 134.322 189.243 131.419 189.243C128.516 189.243 126.162 186.89 126.162 183.986C126.162 181.083 128.516 178.73 131.419 178.73Z" fill="black"/>
<path d="M257.581 178.73C260.485 178.73 262.838 181.083 262.838 183.986C262.838 186.89 260.485 189.243 257.581 189.243C254.678 189.243 252.324 186.89 252.324 183.986C252.324 181.083 254.678 178.73 257.581 178.73Z" fill="black"/>
<path d="M268.095 178.73C270.998 178.73 273.352 181.083 273.352 183.986C273.352 186.89 270.998 189.243 268.095 189.243C265.192 189.243 262.838 186.89 262.838 183.986C262.838 181.083 265.192 178.73 268.095 178.73Z" fill="black"/>
<path d="M289.122 178.73C292.025 178.73 294.379 181.083 294.379 183.986C294.379 186.89 292.025 189.243 289.122 189.243C286.219 189.243 283.865 186.89 283.865 183.986C283.865 181.083 286.219 178.73 289.122 178.73Z" fill="black"/>
<path d="M310.149 178.73C313.052 178.73 315.406 181.083 315.406 183.986C315.406 186.89 313.052 189.243 310.149 189.243C307.246 189.243 304.892 186.89 304.892 183.986C304.892 181.083 307.246 178.73 310.149 178.73Z" fill="black"/>
<path d="M341.689 178.73C344.593 178.73 346.946 181.083 346.946 183.986C346.946 186.89 344.593 189.243 341.689 189.243C338.786 189.243 336.433 186.89 336.433 183.986C336.433 181.083 338.786 178.73 341.689 178.73Z" fill="black"/>
<path d="M352.203 178.73C355.106 178.73 357.46 181.083 357.46 183.986C357.46 186.89 355.106 189.243 352.203 189.243C349.3 189.243 346.946 186.89 346.946 183.986C346.946 181.083 349.3 178.73 352.203 178.73Z" fill="black"/>
<path d="M68.3381 189.243C71.2414 189.243 73.5948 191.597 73.5948 194.5C73.5948 197.403 71.2414 199.757 68.3381 199.757C65.4349 199.757 63.0813 197.403 63.0813 194.5C63.0813 191.597 65.4349 189.243 68.3381 189.243Z" fill="black"/>
<path d="M89.3652 189.243C92.2685 189.243 94.6219 191.597 94.6219 194.5C94.6219 197.403 92.2685 199.757 89.3652 199.757C86.462 199.757 84.1084 197.403 84.1084 194.5C84.1084 191.597 86.462 189.243 89.3652 189.243Z" fill="black"/>
<path d="M99.8786 189.243C102.782 189.243 105.135 191.597 105.135 194.5C105.135 197.403 102.782 199.757 99.8786 199.757C96.9754 199.757 94.6218 197.403 94.6218 194.5C94.6218 191.597 96.9754 189.243 99.8786 189.243Z" fill="black"/>
<path d="M120.906 189.243C123.809 189.243 126.162 191.597 126.162 194.5C126.162 197.403 123.809 199.757 120.906 199.757C118.002 199.757 115.649 197.403 115.649 194.5C115.649 191.597 118.002 189.243 120.906 189.243Z" fill="black"/>
<path d="M278.608 189.243C281.512 189.243 283.865 191.597 283.865 194.5C283.865 197.403 281.512 199.757 278.608 199.757C275.705 199.757 273.352 197.403 273.352 194.5C273.352 191.597 275.705 189.243 278.608 189.243Z" fill="black"/>
<path d="M299.635 189.243C302.539 189.243 304.892 191.597 304.892 194.5C304.892 197.403 302.539 199.757 299.635 199.757C296.732 199.757 294.379 197.403 294.379 194.5C294.379 191.597 296.732 189.243 299.635 189.243Z" fill="black"/>
<path d="M310.149 189.243C313.052 189.243 315.406 191.597 315.406 194.5C315.406 197.403 313.052 199.757 310.149 199.757C307.246 199.757 304.892 197.403 304.892 194.5C304.892 191.597 307.246 189.243 310.149 189.243Z" fill="black"/>
<path d="M320.663 189.243C323.566 189.243 325.919 191.597 325.919 194.5C325.919 197.403 323.566 199.757 320.663 199.757C317.759 199.757 315.406 197.403 315.406 194.5C315.406 191.597 317.759 189.243 320.663 189.243Z" fill="black"/>
<path d="M47.311 199.757C50.2143 199.757 52.5677 202.11 52.5677 205.013C52.5677 207.917 50.2143 210.27 47.311 210.27C44.4078 210.27 42.0542 207.917 42.0542 205.013C42.0542 202.11 44.4078 199.757 47.311 199.757Z" fill="black"/>
<path d="M78.8515 199.757C81.7548 199.757 84.1082 202.11 84.1082 205.013C84.1082 207.917 81.7548 210.27 78.8515 210.27C75.9483 210.27 73.5947 207.917 73.5947 205.013C73.5947 202.11 75.9483 199.757 78.8515 199.757Z" fill="black"/>
<path d="M99.8786 199.757C102.782 199.757 105.135 202.11 105.135 205.013C105.135 207.917 102.782 210.27 99.8786 210.27C96.9754 210.27 94.6218 207.917 94.6218 205.013C94.6218 202.11 96.9754 199.757 99.8786 199.757Z" fill="black"/>
<path d="M110.392 199.757C113.295 199.757 115.649 202.11 115.649 205.013C115.649 207.917 113.295 210.27 110.392 210.27C107.489 210.27 105.135 207.917 105.135 205.013C105.135 202.11 107.489 199.757 110.392 199.757Z" fill="black"/>
<path d="M257.581 199.757C260.485 199.757 262.838 202.11 262.838 205.013C262.838 207.917 260.485 210.27 257.581 210.27C254.678 210.27 252.324 207.917 252.324 205.013C252.324 202.11 254.678 199.757 257.581 199.757Z" fill="black"/>
<path d="M268.095 199.757C270.998 199.757 273.352 202.11 273.352 205.013C273.352 207.917 270.998 210.27 268.095 210.27C265.192 210.27 262.838 207.917 262.838 205.013C262.838 202.11 265.192 199.757 268.095 199.757Z" fill="black"/>
<path d="M299.635 199.757C302.539 199.757 304.892 202.11 304.892 205.013C304.892 207.917 302.539 210.27 299.635 210.27C296.732 210.27 294.379 207.917 294.379 205.013C294.379 202.11 296.732 199.757 299.635 199.757Z" fill="black"/>
<path d="M310.149 199.757C313.052 199.757 315.406 202.11 315.406 205.013C315.406 207.917 313.052 210.27 310.149 210.27C307.246 210.27 304.892 207.917 304.892 205.013C304.892 202.11 307.246 199.757 310.149 199.757Z" fill="black"/>
<path d="M320.663 199.757C323.566 199.757 325.919 202.11 325.919 205.013C325.919 207.917 323.566 210.27 320.663 210.27C317.759 210.27 315.406 207.917 315.406 205.013C315.406 202.11 317.759 199.757 320.663 199.757Z" fill="black"/>
<path d="M341.689 199.757C344.593 199.757 346.946 202.11 346.946 205.013C346.946 207.917 344.593 210.27 341.689 210.27C338.786 210.27 336.433 207.917 336.433 205.013C336.433 202.11 338.786 199.757 341.689 199.757Z" fill="black"/>
<path d="M352.203 199.757C355.106 199.757 357.46 202.11 357.46 205.013C357.46 207.917 355.106 210.27 352.203 210.27C349.3 210.27 346.946 207.917 346.946 205.013C346.946 202.11 349.3 199.757 352.203 199.757Z" fill="black"/>
<path d="M36.7975 210.27C39.7009 210.27 42.0543 212.624 42.0543 215.527C42.0543 218.43 39.7009 220.784 36.7975 220.784C33.8943 220.784 31.5408 218.43 31.5408 215.527C31.5408 212.624 33.8943 210.27 36.7975 210.27Z" fill="black"/>
<path d="M57.8246 210.27C60.728 210.27 63.0814 212.624 63.0814 215.527C63.0814 218.43 60.728 220.784 57.8246 220.784C54.9214 220.784 52.5679 218.43 52.5679 215.527C52.5679 212.624 54.9214 210.27 57.8246 210.27Z" fill="black"/>
<path d="M68.3381 210.27C71.2414 210.27 73.5948 212.624 73.5948 215.527C73.5948 218.43 71.2414 220.784 68.3381 220.784C65.4349 220.784 63.0813 218.43 63.0813 215.527C63.0813 212.624 65.4349 210.27 68.3381 210.27Z" fill="black"/>
<path d="M89.3652 210.27C92.2685 210.27 94.6219 212.624 94.6219 215.527C94.6219 218.43 92.2685 220.784 89.3652 220.784C86.462 220.784 84.1084 218.43 84.1084 215.527C84.1084 212.624 86.462 210.27 89.3652 210.27Z" fill="black"/>
<path d="M120.906 210.27C123.809 210.27 126.162 212.624 126.162 215.527C126.162 218.43 123.809 220.784 120.906 220.784C118.002 220.784 115.649 218.43 115.649 215.527C115.649 212.624 118.002 210.27 120.906 210.27Z" fill="black"/>
<path d="M131.419 210.27C134.322 210.27 136.676 212.624 136.676 215.527C136.676 218.43 134.322 220.784 131.419 220.784C128.516 220.784 126.162 218.43 126.162 215.527C126.162 212.624 128.516 210.27 131.419 210.27Z" fill="black"/>
<path d="M257.581 210.27C260.485 210.27 262.838 212.624 262.838 215.527C262.838 218.43 260.485 220.784 257.581 220.784C254.678 220.784 252.324 218.43 252.324 215.527C252.324 212.624 254.678 210.27 257.581 210.27Z" fill="black"/>
<path d="M289.122 210.27C292.025 210.27 294.379 212.624 294.379 215.527C294.379 218.43 292.025 220.784 289.122 220.784C286.219 220.784 283.865 218.43 283.865 215.527C283.865 212.624 286.219 210.27 289.122 210.27Z" fill="black"/>
<path d="M299.635 210.27C302.539 210.27 304.892 212.624 304.892 215.527C304.892 218.43 302.539 220.784 299.635 220.784C296.732 220.784 294.379 218.43 294.379 215.527C294.379 212.624 296.732 210.27 299.635 210.27Z" fill="black"/>
<path d="M320.663 210.27C323.566 210.27 325.919 212.624 325.919 215.527C325.919 218.43 323.566 220.784 320.663 220.784C317.759 220.784 315.406 218.43 315.406 215.527C315.406 212.624 317.759 210.27 320.663 210.27Z" fill="black"/>
<path d="M341.689 210.27C344.593 210.27 346.946 212.624 346.946 215.527C346.946 218.43 344.593 220.784 341.689 220.784C338.786 220.784 336.433 218.43 336.433 215.527C336.433 212.624 338.786 210.27 341.689 210.27Z" fill="black"/>
<path d="M352.203 210.27C355.106 210.27 357.46 212.624 357.46 215.527C357.46 218.43 355.106 220.784 352.203 220.784C349.3 220.784 346.946 218.43 346.946 215.527C346.946 212.624 349.3 210.27 352.203 210.27Z" fill="black"/>
<path d="M362.716 210.27C365.62 210.27 367.973 212.624 367.973 215.527C367.973 218.43 365.62 220.784 362.716 220.784C359.813 220.784 357.46 218.43 357.46 215.527C357.46 212.624 359.813 210.27 362.716 210.27Z" fill="black"/>
<path d="M26.2841 220.784C29.1874 220.784 31.5409 223.137 31.5409 226.041C31.5409 228.944 29.1874 231.297 26.2841 231.297C23.3809 231.297 21.0273 228.944 21.0273 226.041C21.0273 223.137 23.3809 220.784 26.2841 220.784Z" fill="black"/>
<path d="M36.7975 220.784C39.7009 220.784 42.0543 223.137 42.0543 226.041C42.0543 228.944 39.7009 231.297 36.7975 231.297C33.8943 231.297 31.5408 228.944 31.5408 226.041C31.5408 223.137 33.8943 220.784 36.7975 220.784Z" fill="black"/>
<path d="M68.3381 220.784C71.2414 220.784 73.5948 223.137 73.5948 226.041C73.5948 228.944 71.2414 231.297 68.3381 231.297C65.4349 231.297 63.0813 228.944 63.0813 226.041C63.0813 223.137 65.4349 220.784 68.3381 220.784Z" fill="black"/>
<path d="M78.8515 220.784C81.7548 220.784 84.1082 223.137 84.1082 226.041C84.1082 228.944 81.7548 231.297 78.8515 231.297C75.9483 231.297 73.5947 228.944 73.5947 226.041C73.5947 223.137 75.9483 220.784 78.8515 220.784Z" fill="black"/>
<path d="M99.8786 220.784C102.782 220.784 105.135 223.137 105.135 226.041C105.135 228.944 102.782 231.297 99.8786 231.297C96.9754 231.297 94.6218 228.944 94.6218 226.041C94.6218 223.137 96.9754 220.784 99.8786 220.784Z" fill="black"/>
<path d="M310.149 220.784C313.052 220.784 315.406 223.137 315.406 226.041C315.406 228.944 313.052 231.297 310.149 231.297C307.246 231.297 304.892 228.944 304.892 226.041C304.892 223.137 307.246 220.784 310.149 220.784Z" fill="black"/>
<path d="M26.2841 231.297C29.1874 231.297 31.5409 233.651 31.5409 236.554C31.5409 239.457 29.1874 241.811 26.2841 241.811C23.3809 241.811 21.0273 239.457 21.0273 236.554C21.0273 233.651 23.3809 231.297 26.2841 231.297Z" fill="black"/>
<path d="M47.311 231.297C50.2143 231.297 52.5677 233.651 52.5677 236.554C52.5677 239.457 50.2143 241.811 47.311 241.811C44.4078 241.811 42.0542 239.457 42.0542 236.554C42.0542 233.651 44.4078 231.297 47.311 231.297Z" fill="black"/>
<path d="M57.8246 231.297C60.728 231.297 63.0814 233.651 63.0814 236.554C63.0814 239.457 60.728 241.811 57.8246 241.811C54.9214 241.811 52.5679 239.457 52.5679 236.554C52.5679 233.651 54.9214 231.297 57.8246 231.297Z" fill="black"/>
<path d="M68.3381 231.297C71.2414 231.297 73.5948 233.651 73.5948 236.554C73.5948 239.457 71.2414 241.811 68.3381 241.811C65.4349 241.811 63.0813 239.457 63.0813 236.554C63.0813 233.651 65.4349 231.297 68.3381 231.297Z" fill="black"/>
<path d="M89.3652 231.297C92.2685 231.297 94.6219 233.651 94.6219 236.554C94.6219 239.457 92.2685 241.811 89.3652 241.811C86.462 241.811 84.1084 239.457 84.1084 236.554C84.1084 233.651 86.462 231.297 89.3652 231.297Z" fill="black"/>
<path d="M120.906 231.297C123.809 231.297 126.162 233.651 126.162 236.554C126.162 239.457 123.809 241.811 120.906 241.811C118.002 241.811 115.649 239.457 115.649 236.554C115.649 233.651 118.002 231.297 120.906 231.297Z" fill="black"/>
<path d="M278.608 231.297C281.512 231.297 283.865 233.651 283.865 236.554C283.865 239.457 281.512 241.811 278.608 241.811C275.705 241.811 273.352 239.457 273.352 236.554C273.352 233.651 275.705 231.297 278.608 231.297Z" fill="black"/>
<path d="M299.635 231.297C302.539 231.297 304.892 233.651 304.892 236.554C304.892 239.457 302.539 241.811 299.635 241.811C296.732 241.811 294.379 239.457 294.379 236.554C294.379 233.651 296.732 231.297 299.635 231.297Z" fill="black"/>
<path d="M331.176 231.297C334.079 231.297 336.433 233.651 336.433 236.554C336.433 239.457 334.079 241.811 331.176 241.811C328.273 241.811 325.919 239.457 325.919 236.554C325.919 233.651 328.273 231.297 331.176 231.297Z" fill="black"/>
<path d="M341.689 231.297C344.593 231.297 346.946 233.651 346.946 236.554C346.946 239.457 344.593 241.811 341.689 241.811C338.786 241.811 336.433 239.457 336.433 236.554C336.433 233.651 338.786 231.297 341.689 231.297Z" fill="black"/>
<path d="M362.716 231.297C365.62 231.297 367.973 233.651 367.973 236.554C367.973 239.457 365.62 241.811 362.716 241.811C359.813 241.811 357.46 239.457 357.46 236.554C357.46 233.651 359.813 231.297 362.716 231.297Z" fill="black"/>
<path d="M26.2841 241.811C29.1874 241.811 31.5409 244.164 31.5409 247.068C31.5409 249.971 29.1874 252.324 26.2841 252.324C23.3809 252.324 21.0273 249.971 21.0273 247.068C21.0273 244.164 23.3809 241.811 26.2841 241.811Z" fill="black"/>
<path d="M57.8246 241.811C60.728 241.811 63.0814 244.164 63.0814 247.068C63.0814 249.971 60.728 252.324 57.8246 252.324C54.9214 252.324 52.5679 249.971 52.5679 247.068C52.5679 244.164 54.9214 241.811 57.8246 241.811Z" fill="black"/>
<path d="M68.3381 241.811C71.2414 241.811 73.5948 244.164 73.5948 247.068C73.5948 249.971 71.2414 252.324 68.3381 252.324C65.4349 252.324 63.0813 249.971 63.0813 247.068C63.0813 244.164 65.4349 241.811 68.3381 241.811Z" fill="black"/>
<path d="M78.8515 241.811C81.7548 241.811 84.1082 244.164 84.1082 247.068C84.1082 249.971 81.7548 252.324 78.8515 252.324C75.9483 252.324 73.5947 249.971 73.5947 247.068C73.5947 244.164 75.9483 241.811 78.8515 241.811Z" fill="black"/>
<path d="M99.8786 241.811C102.782 241.811 105.135 244.164 105.135 247.068C105.135 249.971 102.782 252.324 99.8786 252.324C96.9754 252.324 94.6218 249.971 94.6218 247.068C94.6218 244.164 96.9754 241.811 99.8786 241.811Z" fill="black"/>
<path d="M110.392 241.811C113.295 241.811 115.649 244.164 115.649 247.068C115.649 249.971 113.295 252.324 110.392 252.324C107.489 252.324 105.135 249.971 105.135 247.068C105.135 244.164 107.489 241.811 110.392 241.811Z" fill="black"/>
<path d="M120.906 241.811C123.809 241.811 126.162 244.164 126.162 247.068C126.162 249.971 123.809 252.324 120.906 252.324C118.002 252.324 115.649 249.971 115.649 247.068C115.649 244.164 118.002 241.811 120.906 241.811Z" fill="black"/>
<path d="M257.581 241.811C260.485 241.811 262.838 244.164 262.838 247.068C262.838 249.971 260.485 252.324 257.581 252.324C254.678 252.324 252.324 249.971 252.324 247.068C252.324 244.164 254.678 241.811 257.581 241.811Z" fill="black"/>
<path d="M278.608 241.811C281.512 241.811 283.865 244.164 283.865 247.068C283.865 249.971 281.512 252.324 278.608 252.324C275.705 252.324 273.352 249.971 273.352 247.068C273.352 244.164 275.705 241.811 278.608 241.811Z" fill="black"/>
<path d="M331.176 241.811C334.079 241.811 336.433 244.164 336.433 247.068C336.433 249.971 334.079 252.324 331.176 252.324C328.273 252.324 325.919 249.971 325.919 247.068C325.919 244.164 328.273 241.811 331.176 241.811Z" fill="black"/>
<path d="M362.716 241.811C365.62 241.811 367.973 244.164 367.973 247.068C367.973 249.971 365.62 252.324 362.716 252.324C359.813 252.324 357.46 249.971 357.46 247.068C357.46 244.164 359.813 241.811 362.716 241.811Z" fill="black"/>
<path d="M47.311 252.324C50.2143 252.324 52.5677 254.678 52.5677 257.581C52.5677 260.484 50.2143 262.838 47.311 262.838C44.4078 262.838 42.0542 260.484 42.0542 257.581C42.0542 254.678 44.4078 252.324 47.311 252.324Z" fill="black"/>
<path d="M68.3381 252.324C71.2414 252.324 73.5948 254.678 73.5948 257.581C73.5948 260.484 71.2414 262.838 68.3381 262.838C65.4349 262.838 63.0813 260.484 63.0813 257.581C63.0813 254.678 65.4349 252.324 68.3381 252.324Z" fill="black"/>
<path d="M89.3652 252.324C92.2685 252.324 94.6219 254.678 94.6219 257.581C94.6219 260.484 92.2685 262.838 89.3652 262.838C86.462 262.838 84.1084 260.484 84.1084 257.581C84.1084 254.678 86.462 252.324 89.3652 252.324Z" fill="black"/>
<path d="M141.933 252.324C144.836 252.324 147.19 254.678 147.19 257.581C147.19 260.484 144.836 262.838 141.933 262.838C139.03 262.838 136.676 260.484 136.676 257.581C136.676 254.678 139.03 252.324 141.933 252.324Z" fill="black"/>
<path d="M183.986 252.324C186.89 252.324 189.243 254.678 189.243 257.581C189.243 260.484 186.89 262.838 183.986 262.838C181.083 262.838 178.73 260.484 178.73 257.581C178.73 254.678 181.083 252.324 183.986 252.324Z" fill="black"/>
<path d="M194.5 252.324C197.404 252.324 199.757 254.678 199.757 257.581C199.757 260.484 197.404 262.838 194.5 262.838C191.597 262.838 189.243 260.484 189.243 257.581C189.243 254.678 191.597 252.324 194.5 252.324Z" fill="black"/>
<path d="M205.014 252.324C207.917 252.324 210.271 254.678 210.271 257.581C210.271 260.484 207.917 262.838 205.014 262.838C202.111 262.838 199.757 260.484 199.757 257.581C199.757 254.678 202.111 252.324 205.014 252.324Z" fill="black"/>
<path d="M247.068 252.324C249.971 252.324 252.325 254.678 252.325 257.581C252.325 260.484 249.971 262.838 247.068 262.838C244.165 262.838 241.811 260.484 241.811 257.581C241.811 254.678 244.165 252.324 247.068 252.324Z" fill="black"/>
<path d="M257.581 252.324C260.485 252.324 262.838 254.678 262.838 257.581C262.838 260.484 260.485 262.838 257.581 262.838C254.678 262.838 252.324 260.484 252.324 257.581C252.324 254.678 254.678 252.324 257.581 252.324Z" fill="black"/>
<path d="M268.095 252.324C270.998 252.324 273.352 254.678 273.352 257.581C273.352 260.484 270.998 262.838 268.095 262.838C265.192 262.838 262.838 260.484 262.838 257.581C262.838 254.678 265.192 252.324 268.095 252.324Z" fill="black"/>
<path d="M278.608 252.324C281.512 252.324 283.865 254.678 283.865 257.581C283.865 260.484 281.512 262.838 278.608 262.838C275.705 262.838 273.352 260.484 273.352 257.581C273.352 254.678 275.705 252.324 278.608 252.324Z" fill="black"/>
<path d="M299.635 252.324C302.539 252.324 304.892 254.678 304.892 257.581C304.892 260.484 302.539 262.838 299.635 262.838C296.732 262.838 294.379 260.484 294.379 257.581C294.379 254.678 296.732 252.324 299.635 252.324Z" fill="black"/>
<path d="M310.149 252.324C313.052 252.324 315.406 254.678 315.406 257.581C315.406 260.484 313.052 262.838 310.149 262.838C307.246 262.838 304.892 260.484 304.892 257.581C304.892 254.678 307.246 252.324 310.149 252.324Z" fill="black"/>
<path d="M331.176 252.324C334.079 252.324 336.433 254.678 336.433 257.581C336.433 260.484 334.079 262.838 331.176 262.838C328.273 262.838 325.919 260.484 325.919 257.581C325.919 254.678 328.273 252.324 331.176 252.324Z" fill="black"/>
<path d="M341.689 252.324C344.593 252.324 346.946 254.678 346.946 257.581C346.946 260.484 344.593 262.838 341.689 262.838C338.786 262.838 336.433 260.484 336.433 257.581C336.433 254.678 338.786 252.324 341.689 252.324Z" fill="black"/>
<path d="M352.203 252.324C355.106 252.324 357.46 254.678 357.46 257.581C357.46 260.484 355.106 262.838 352.203 262.838C349.3 262.838 346.946 260.484 346.946 257.581C346.946 254.678 349.3 252.324 352.203 252.324Z" fill="black"/>
<path d="M362.716 252.324C365.62 252.324 367.973 254.678 367.973 257.581C367.973 260.484 365.62 262.838 362.716 262.838C359.813 262.838 357.46 260.484 357.46 257.581C357.46 254.678 359.813 252.324 362.716 252.324Z" fill="black"/>
<path d="M36.7975 262.838C39.7009 262.838 42.0543 265.191 42.0543 268.095C42.0543 270.998 39.7009 273.351 36.7975 273.351C33.8943 273.351 31.5408 270.998 31.5408 268.095C31.5408 265.191 33.8943 262.838 36.7975 262.838Z" fill="black"/>
<path d="M68.3381 262.838C71.2414 262.838 73.5948 265.191 73.5948 268.095C73.5948 270.998 71.2414 273.351 68.3381 273.351C65.4349 273.351 63.0813 270.998 63.0813 268.095C63.0813 265.191 65.4349 262.838 68.3381 262.838Z" fill="black"/>
<path d="M78.8515 262.838C81.7548 262.838 84.1082 265.191 84.1082 268.095C84.1082 270.998 81.7548 273.351 78.8515 273.351C75.9483 273.351 73.5947 270.998 73.5947 268.095C73.5947 265.191 75.9483 262.838 78.8515 262.838Z" fill="black"/>
<path d="M99.8786 262.838C102.782 262.838 105.135 265.191 105.135 268.095C105.135 270.998 102.782 273.351 99.8786 273.351C96.9754 273.351 94.6218 270.998 94.6218 268.095C94.6218 265.191 96.9754 262.838 99.8786 262.838Z" fill="black"/>
<path d="M110.392 262.838C113.295 262.838 115.649 265.191 115.649 268.095C115.649 270.998 113.295 273.351 110.392 273.351C107.489 273.351 105.135 270.998 105.135 268.095C105.135 265.191 107.489 262.838 110.392 262.838Z" fill="black"/>
<path d="M131.419 262.838C134.322 262.838 136.676 265.191 136.676 268.095C136.676 270.998 134.322 273.351 131.419 273.351C128.516 273.351 126.162 270.998 126.162 268.095C126.162 265.191 128.516 262.838 131.419 262.838Z" fill="black"/>
<path d="M152.446 262.838C155.35 262.838 157.703 265.191 157.703 268.095C157.703 270.998 155.35 273.351 152.446 273.351C149.543 273.351 147.189 270.998 147.189 268.095C147.189 265.191 149.543 262.838 152.446 262.838Z" fill="black"/>
<path d="M162.96 262.838C165.863 262.838 168.216 265.191 168.216 268.095C168.216 270.998 165.863 273.351 162.96 273.351C160.056 273.351 157.703 270.998 157.703 268.095C157.703 265.191 160.056 262.838 162.96 262.838Z" fill="black"/>
<path d="M183.986 262.838C186.89 262.838 189.243 265.191 189.243 268.095C189.243 270.998 186.89 273.351 183.986 273.351C181.083 273.351 178.73 270.998 178.73 268.095C178.73 265.191 181.083 262.838 183.986 262.838Z" fill="black"/>
<path d="M194.5 262.838C197.404 262.838 199.757 265.191 199.757 268.095C199.757 270.998 197.404 273.351 194.5 273.351C191.597 273.351 189.243 270.998 189.243 268.095C189.243 265.191 191.597 262.838 194.5 262.838Z" fill="black"/>
<path d="M205.014 262.838C207.917 262.838 210.271 265.191 210.271 268.095C210.271 270.998 207.917 273.351 205.014 273.351C202.111 273.351 199.757 270.998 199.757 268.095C199.757 265.191 202.111 262.838 205.014 262.838Z" fill="black"/>
<path d="M215.528 262.838C218.431 262.838 220.784 265.191 220.784 268.095C220.784 270.998 218.431 273.351 215.528 273.351C212.624 273.351 210.271 270.998 210.271 268.095C210.271 265.191 212.624 262.838 215.528 262.838Z" fill="black"/>
<path d="M236.554 262.838C239.458 262.838 241.811 265.191 241.811 268.095C241.811 270.998 239.458 273.351 236.554 273.351C233.651 273.351 231.298 270.998 231.298 268.095C231.298 265.191 233.651 262.838 236.554 262.838Z" fill="black"/>
<path d="M289.122 262.838C292.025 262.838 294.379 265.191 294.379 268.095C294.379 270.998 292.025 273.351 289.122 273.351C286.219 273.351 283.865 270.998 283.865 268.095C283.865 265.191 286.219 262.838 289.122 262.838Z" fill="black"/>
<path d="M310.149 262.838C313.052 262.838 315.406 265.191 315.406 268.095C315.406 270.998 313.052 273.351 310.149 273.351C307.246 273.351 304.892 270.998 304.892 268.095C304.892 265.191 307.246 262.838 310.149 262.838Z" fill="black"/>
<path d="M320.663 262.838C323.566 262.838 325.919 265.191 325.919 268.095C325.919 270.998 323.566 273.351 320.663 273.351C317.759 273.351 315.406 270.998 315.406 268.095C315.406 265.191 317.759 262.838 320.663 262.838Z" fill="black"/>
<path d="M331.176 262.838C334.079 262.838 336.433 265.191 336.433 268.095C336.433 270.998 334.079 273.351 331.176 273.351C328.273 273.351 325.919 270.998 325.919 268.095C325.919 265.191 328.273 262.838 331.176 262.838Z" fill="black"/>
<path d="M352.203 262.838C355.106 262.838 357.46 265.191 357.46 268.095C357.46 270.998 355.106 273.351 352.203 273.351C349.3 273.351 346.946 270.998 346.946 268.095C346.946 265.191 349.3 262.838 352.203 262.838Z" fill="black"/>
<path d="M26.2841 273.351C29.1874 273.351 31.5409 275.705 31.5409 278.608C31.5409 281.511 29.1874 283.865 26.2841 283.865C23.3809 283.865 21.0273 281.511 21.0273 278.608C21.0273 275.705 23.3809 273.351 26.2841 273.351Z" fill="black"/>
<path d="M47.311 273.351C50.2143 273.351 52.5677 275.705 52.5677 278.608C52.5677 281.511 50.2143 283.865 47.311 283.865C44.4078 283.865 42.0542 281.511 42.0542 278.608C42.0542 275.705 44.4078 273.351 47.311 273.351Z" fill="black"/>
<path d="M57.8246 273.351C60.728 273.351 63.0814 275.705 63.0814 278.608C63.0814 281.511 60.728 283.865 57.8246 283.865C54.9214 283.865 52.5679 281.511 52.5679 278.608C52.5679 275.705 54.9214 273.351 57.8246 273.351Z" fill="black"/>
<path d="M68.3381 273.351C71.2414 273.351 73.5948 275.705 73.5948 278.608C73.5948 281.511 71.2414 283.865 68.3381 283.865C65.4349 283.865 63.0813 281.511 63.0813 278.608C63.0813 275.705 65.4349 273.351 68.3381 273.351Z" fill="black"/>
<path d="M78.8515 273.351C81.7548 273.351 84.1082 275.705 84.1082 278.608C84.1082 281.511 81.7548 283.865 78.8515 283.865C75.9483 283.865 73.5947 281.511 73.5947 278.608C73.5947 275.705 75.9483 273.351 78.8515 273.351Z" fill="black"/>
<path d="M89.3652 273.351C92.2685 273.351 94.6219 275.705 94.6219 278.608C94.6219 281.511 92.2685 283.865 89.3652 283.865C86.462 283.865 84.1084 281.511 84.1084 278.608C84.1084 275.705 86.462 273.351 89.3652 273.351Z" fill="black"/>
<path d="M110.392 273.351C113.295 273.351 115.649 275.705 115.649 278.608C115.649 281.511 113.295 283.865 110.392 283.865C107.489 283.865 105.135 281.511 105.135 278.608C105.135 275.705 107.489 273.351 110.392 273.351Z" fill="black"/>
<path d="M131.419 273.351C134.322 273.351 136.676 275.705 136.676 278.608C136.676 281.511 134.322 283.865 131.419 283.865C128.516 283.865 126.162 281.511 126.162 278.608C126.162 275.705 128.516 273.351 131.419 273.351Z" fill="black"/>
<path d="M152.446 273.351C155.35 273.351 157.703 275.705 157.703 278.608C157.703 281.511 155.35 283.865 152.446 283.865C149.543 283.865 147.189 281.511 147.189 278.608C147.189 275.705 149.543 273.351 152.446 273.351Z" fill="black"/>
<path d="M183.986 273.351C186.89 273.351 189.243 275.705 189.243 278.608C189.243 281.511 186.89 283.865 183.986 283.865C181.083 283.865 178.73 281.511 178.73 278.608C178.73 275.705 181.083 273.351 183.986 273.351Z" fill="black"/>
<path d="M194.5 273.351C197.404 273.351 199.757 275.705 199.757 278.608C199.757 281.511 197.404 283.865 194.5 283.865C191.597 283.865 189.243 281.511 189.243 278.608C189.243 275.705 191.597 273.351 194.5 273.351Z" fill="black"/>
<path d="M205.014 273.351C207.917 273.351 210.271 275.705 210.271 278.608C210.271 281.511 207.917 283.865 205.014 283.865C202.111 283.865 199.757 281.511 199.757 278.608C199.757 275.705 202.111 273.351 205.014 273.351Z" fill="black"/>
<path d="M236.554 273.351C239.458 273.351 241.811 275.705 241.811 278.608C241.811 281.511 239.458 283.865 236.554 283.865C233.651 283.865 231.298 281.511 231.298 278.608C231.298 275.705 233.651 273.351 236.554 273.351Z" fill="black"/>
<path d="M247.068 273.351C249.971 273.351 252.325 275.705 252.325 278.608C252.325 281.511 249.971 283.865 247.068 283.865C244.165 283.865 241.811 281.511 241.811 278.608C241.811 275.705 244.165 273.351 247.068 273.351Z" fill="black"/>
<path d="M278.608 273.351C281.512 273.351 283.865 275.705 283.865 278.608C283.865 281.511 281.512 283.865 278.608 283.865C275.705 283.865 273.352 281.511 273.352 278.608C273.352 275.705 275.705 273.351 278.608 273.351Z" fill="black"/>
<path d="M289.122 273.351C292.025 273.351 294.379 275.705 294.379 278.608C294.379 281.511 292.025 283.865 289.122 283.865C286.219 283.865 283.865 281.511 283.865 278.608C283.865 275.705 286.219 273.351 289.122 273.351Z" fill="black"/>
<path d="M299.635 273.351C302.539 273.351 304.892 275.705 304.892 278.608C304.892 281.511 302.539 283.865 299.635 283.865C296.732 283.865 294.379 281.511 294.379 278.608C294.379 275.705 296.732 273.351 299.635 273.351Z" fill="black"/>
<path d="M310.149 273.351C313.052 273.351 315.406 275.705 315.406 278.608C315.406 281.511 313.052 283.865 310.149 283.865C307.246 283.865 304.892 281.511 304.892 278.608C304.892 275.705 307.246 273.351 310.149 273.351Z" fill="black"/>
<path d="M320.663 273.351C323.566 273.351 325.919 275.705 325.919 278.608C325.919 281.511 323.566 283.865 320.663 283.865C317.759 283.865 315.406 281.511 315.406 278.608C315.406 275.705 317.759 273.351 320.663 273.351Z" fill="black"/>
<path d="M352.203 273.351C355.106 273.351 357.46 275.705 357.46 278.608C357.46 281.511 355.106 283.865 352.203 283.865C349.3 283.865 346.946 281.511 346.946 278.608C346.946 275.705 349.3 273.351 352.203 273.351Z" fill="black"/>
<path d="M110.392 283.865C113.295 283.865 115.649 286.218 115.649 289.122C115.649 292.025 113.295 294.378 110.392 294.378C107.489 294.378 105.135 292.025 105.135 289.122C105.135 286.218 107.489 283.865 110.392 283.865Z" fill="black"/>
<path d="M131.419 283.865C134.322 283.865 136.676 286.218 136.676 289.122C136.676 292.025 134.322 294.378 131.419 294.378C128.516 294.378 126.162 292.025 126.162 289.122C126.162 286.218 128.516 283.865 131.419 283.865Z" fill="black"/>
<path d="M141.933 283.865C144.836 283.865 147.19 286.218 147.19 289.122C147.19 292.025 144.836 294.378 141.933 294.378C139.03 294.378 136.676 292.025 136.676 289.122C136.676 286.218 139.03 283.865 141.933 283.865Z" fill="black"/>
<path d="M173.473 283.865C176.377 283.865 178.73 286.218 178.73 289.122C178.73 292.025 176.377 294.378 173.473 294.378C170.57 294.378 168.217 292.025 168.217 289.122C168.217 286.218 170.57 283.865 173.473 283.865Z" fill="black"/>
<path d="M194.5 283.865C197.404 283.865 199.757 286.218 199.757 289.122C199.757 292.025 197.404 294.378 194.5 294.378C191.597 294.378 189.243 292.025 189.243 289.122C189.243 286.218 191.597 283.865 194.5 283.865Z" fill="black"/>
<path d="M205.014 283.865C207.917 283.865 210.271 286.218 210.271 289.122C210.271 292.025 207.917 294.378 205.014 294.378C202.111 294.378 199.757 292.025 199.757 289.122C199.757 286.218 202.111 283.865 205.014 283.865Z" fill="black"/>
<path d="M226.041 283.865C228.944 283.865 231.297 286.218 231.297 289.122C231.297 292.025 228.944 294.378 226.041 294.378C223.137 294.378 220.784 292.025 220.784 289.122C220.784 286.218 223.137 283.865 226.041 283.865Z" fill="black"/>
<path d="M236.554 283.865C239.458 283.865 241.811 286.218 241.811 289.122C241.811 292.025 239.458 294.378 236.554 294.378C233.651 294.378 231.298 292.025 231.298 289.122C231.298 286.218 233.651 283.865 236.554 283.865Z" fill="black"/>
<path d="M247.068 283.865C249.971 283.865 252.325 286.218 252.325 289.122C252.325 292.025 249.971 294.378 247.068 294.378C244.165 294.378 241.811 292.025 241.811 289.122C241.811 286.218 244.165 283.865 247.068 283.865Z" fill="black"/>
<path d="M278.608 283.865C281.512 283.865 283.865 286.218 283.865 289.122C283.865 292.025 281.512 294.378 278.608 294.378C275.705 294.378 273.352 292.025 273.352 289.122C273.352 286.218 275.705 283.865 278.608 283.865Z" fill="black"/>
<path d="M320.663 283.865C323.566 283.865 325.919 286.218 325.919 289.122C325.919 292.025 323.566 294.378 320.663 294.378C317.759 294.378 315.406 292.025 315.406 289.122C315.406 286.218 317.759 283.865 320.663 283.865Z" fill="black"/>
<path d="M341.689 283.865C344.593 283.865 346.946 286.218 346.946 289.122C346.946 292.025 344.593 294.378 341.689 294.378C338.786 294.378 336.433 292.025 336.433 289.122C336.433 286.218 338.786 283.865 341.689 283.865Z" fill="black"/>
<path d="M110.392 294.378C113.295 294.378 115.649 296.732 115.649 299.635C115.649 302.539 113.295 304.892 110.392 304.892C107.489 304.892 105.135 302.539 105.135 299.635C105.135 296.732 107.489 294.378 110.392 294.378Z" fill="black"/>
<path d="M120.906 294.378C123.809 294.378 126.162 296.732 126.162 299.635C126.162 302.539 123.809 304.892 120.906 304.892C118.002 304.892 115.649 302.539 115.649 299.635C115.649 296.732 118.002 294.378 120.906 294.378Z" fill="black"/>
<path d="M131.419 294.378C134.322 294.378 136.676 296.732 136.676 299.635C136.676 302.539 134.322 304.892 131.419 304.892C128.516 304.892 126.162 302.539 126.162 299.635C126.162 296.732 128.516 294.378 131.419 294.378Z" fill="black"/>
<path d="M173.473 294.378C176.377 294.378 178.73 296.732 178.73 299.635C178.73 302.539 176.377 304.892 173.473 304.892C170.57 304.892 168.217 302.539 168.217 299.635C168.217 296.732 170.57 294.378 173.473 294.378Z" fill="black"/>
<path d="M183.986 294.378C186.89 294.378 189.243 296.732 189.243 299.635C189.243 302.539 186.89 304.892 183.986 304.892C181.083 304.892 178.73 302.539 178.73 299.635C178.73 296.732 181.083 294.378 183.986 294.378Z" fill="black"/>
<path d="M194.5 294.378C197.404 294.378 199.757 296.732 199.757 299.635C199.757 302.539 197.404 304.892 194.5 304.892C191.597 304.892 189.243 302.539 189.243 299.635C189.243 296.732 191.597 294.378 194.5 294.378Z" fill="black"/>
<path d="M226.041 294.378C228.944 294.378 231.297 296.732 231.297 299.635C231.297 302.539 228.944 304.892 226.041 304.892C223.137 304.892 220.784 302.539 220.784 299.635C220.784 296.732 223.137 294.378 226.041 294.378Z" fill="black"/>
<path d="M236.554 294.378C239.458 294.378 241.811 296.732 241.811 299.635C241.811 302.539 239.458 304.892 236.554 304.892C233.651 304.892 231.298 302.539 231.298 299.635C231.298 296.732 233.651 294.378 236.554 294.378Z" fill="black"/>
<path d="M247.068 294.378C249.971 294.378 252.325 296.732 252.325 299.635C252.325 302.539 249.971 304.892 247.068 304.892C244.165 304.892 241.811 302.539 241.811 299.635C241.811 296.732 244.165 294.378 247.068 294.378Z" fill="black"/>
<path d="M268.095 294.378C270.998 294.378 273.352 296.732 273.352 299.635C273.352 302.539 270.998 304.892 268.095 304.892C265.192 304.892 262.838 302.539 262.838 299.635C262.838 296.732 265.192 294.378 268.095 294.378Z" fill="black"/>
<path d="M278.608 294.378C281.512 294.378 283.865 296.732 283.865 299.635C283.865 302.539 281.512 304.892 278.608 304.892C275.705 304.892 273.352 302.539 273.352 299.635C273.352 296.732 275.705 294.378 278.608 294.378Z" fill="black"/>
<path d="M299.635 294.378C302.539 294.378 304.892 296.732 304.892 299.635C304.892 302.539 302.539 304.892 299.635 304.892C296.732 304.892 294.379 302.539 294.379 299.635C294.379 296.732 296.732 294.378 299.635 294.378Z" fill="black"/>
<path d="M320.663 294.378C323.566 294.378 325.919 296.732 325.919 299.635C325.919 302.539 323.566 304.892 320.663 304.892C317.759 304.892 315.406 302.539 315.406 299.635C315.406 296.732 317.759 294.378 320.663 294.378Z" fill="black"/>
<path d="M331.176 294.378C334.079 294.378 336.433 296.732 336.433 299.635C336.433 302.539 334.079 304.892 331.176 304.892C328.273 304.892 325.919 302.539 325.919 299.635C325.919 296.732 328.273 294.378 331.176 294.378Z" fill="black"/>
<path d="M341.689 294.378C344.593 294.378 346.946 296.732 346.946 299.635C346.946 302.539 344.593 304.892 341.689 304.892C338.786 304.892 336.433 302.539 336.433 299.635C336.433 296.732 338.786 294.378 341.689 294.378Z" fill="black"/>
<path d="M120.906 304.892C123.809 304.892 126.162 307.245 126.162 310.149C126.162 313.052 123.809 315.405 120.906 315.405C118.002 315.405 115.649 313.052 115.649 310.149C115.649 307.245 118.002 304.892 120.906 304.892Z" fill="black"/>
<path d="M131.419 304.892C134.322 304.892 136.676 307.245 136.676 310.149C136.676 313.052 134.322 315.405 131.419 315.405C128.516 315.405 126.162 313.052 126.162 310.149C126.162 307.245 128.516 304.892 131.419 304.892Z" fill="black"/>
<path d="M152.446 304.892C155.35 304.892 157.703 307.245 157.703 310.149C157.703 313.052 155.35 315.405 152.446 315.405C149.543 315.405 147.189 313.052 147.189 310.149C147.189 307.245 149.543 304.892 152.446 304.892Z" fill="black"/>
<path d="M162.96 304.892C165.863 304.892 168.216 307.245 168.216 310.149C168.216 313.052 165.863 315.405 162.96 315.405C160.056 315.405 157.703 313.052 157.703 310.149C157.703 307.245 160.056 304.892 162.96 304.892Z" fill="black"/>
<path d="M194.5 304.892C197.404 304.892 199.757 307.245 199.757 310.149C199.757 313.052 197.404 315.405 194.5 315.405C191.597 315.405 189.243 313.052 189.243 310.149C189.243 307.245 191.597 304.892 194.5 304.892Z" fill="black"/>
<path d="M226.041 304.892C228.944 304.892 231.297 307.245 231.297 310.149C231.297 313.052 228.944 315.405 226.041 315.405C223.137 315.405 220.784 313.052 220.784 310.149C220.784 307.245 223.137 304.892 226.041 304.892Z" fill="black"/>
<path d="M268.095 304.892C270.998 304.892 273.352 307.245 273.352 310.149C273.352 313.052 270.998 315.405 268.095 315.405C265.192 315.405 262.838 313.052 262.838 310.149C262.838 307.245 265.192 304.892 268.095 304.892Z" fill="black"/>
<path d="M278.608 304.892C281.512 304.892 283.865 307.245 283.865 310.149C283.865 313.052 281.512 315.405 278.608 315.405C275.705 315.405 273.352 313.052 273.352 310.149C273.352 307.245 275.705 304.892 278.608 304.892Z" fill="black"/>
<path d="M320.663 304.892C323.566 304.892 325.919 307.245 325.919 310.149C325.919 313.052 323.566 315.405 320.663 315.405C317.759 315.405 315.406 313.052 315.406 310.149C315.406 307.245 317.759 304.892 320.663 304.892Z" fill="black"/>
<path d="M331.176 304.892C334.079 304.892 336.433 307.245 336.433 310.149C336.433 313.052 334.079 315.405 331.176 315.405C328.273 315.405 325.919 313.052 325.919 310.149C325.919 307.245 328.273 304.892 331.176 304.892Z" fill="black"/>
<path d="M341.689 304.892C344.593 304.892 346.946 307.245 346.946 310.149C346.946 313.052 344.593 315.405 341.689 315.405C338.786 315.405 336.433 313.052 336.433 310.149C336.433 307.245 338.786 304.892 341.689 304.892Z" fill="black"/>
<path d="M352.203 304.892C355.106 304.892 357.46 307.245 357.46 310.149C357.46 313.052 355.106 315.405 352.203 315.405C349.3 315.405 346.946 313.052 346.946 310.149C346.946 307.245 349.3 304.892 352.203 304.892Z" fill="black"/>
<path d="M362.716 304.892C365.62 304.892 367.973 307.245 367.973 310.149C367.973 313.052 365.62 315.405 362.716 315.405C359.813 315.405 357.46 313.052 357.46 310.149C357.46 307.245 359.813 304.892 362.716 304.892Z" fill="black"/>
<path d="M131.419 315.405C134.322 315.405 136.676 317.759 136.676 320.662C136.676 323.566 134.322 325.919 131.419 325.919C128.516 325.919 126.162 323.566 126.162 320.662C126.162 317.759 128.516 315.405 131.419 315.405Z" fill="black"/>
<path d="M152.446 315.405C155.35 315.405 157.703 317.759 157.703 320.662C157.703 323.566 155.35 325.919 152.446 325.919C149.543 325.919 147.189 323.566 147.189 320.662C147.189 317.759 149.543 315.405 152.446 315.405Z" fill="black"/>
<path d="M162.96 315.405C165.863 315.405 168.216 317.759 168.216 320.662C168.216 323.566 165.863 325.919 162.96 325.919C160.056 325.919 157.703 323.566 157.703 320.662C157.703 317.759 160.056 315.405 162.96 315.405Z" fill="black"/>
<path d="M205.014 315.405C207.917 315.405 210.271 317.759 210.271 320.662C210.271 323.566 207.917 325.919 205.014 325.919C202.111 325.919 199.757 323.566 199.757 320.662C199.757 317.759 202.111 315.405 205.014 315.405Z" fill="black"/>
<path d="M215.528 315.405C218.431 315.405 220.784 317.759 220.784 320.662C220.784 323.566 218.431 325.919 215.528 325.919C212.624 325.919 210.271 323.566 210.271 320.662C210.271 317.759 212.624 315.405 215.528 315.405Z" fill="black"/>
<path d="M226.041 315.405C228.944 315.405 231.297 317.759 231.297 320.662C231.297 323.566 228.944 325.919 226.041 325.919C223.137 325.919 220.784 323.566 220.784 320.662C220.784 317.759 223.137 315.405 226.041 315.405Z" fill="black"/>
<path d="M236.554 315.405C239.458 315.405 241.811 317.759 241.811 320.662C241.811 323.566 239.458 325.919 236.554 325.919C233.651 325.919 231.298 323.566 231.298 320.662C231.298 317.759 233.651 315.405 236.554 315.405Z" fill="black"/>
<path d="M257.581 315.405C260.485 315.405 262.838 317.759 262.838 320.662C262.838 323.566 260.485 325.919 257.581 325.919C254.678 325.919 252.324 323.566 252.324 320.662C252.324 317.759 254.678 315.405 257.581 315.405Z" fill="black"/>
<path d="M268.095 315.405C270.998 315.405 273.352 317.759 273.352 320.662C273.352 323.566 270.998 325.919 268.095 325.919C265.192 325.919 262.838 323.566 262.838 320.662C262.838 317.759 265.192 315.405 268.095 315.405Z" fill="black"/>
<path d="M278.608 315.405C281.512 315.405 283.865 317.759 283.865 320.662C283.865 323.566 281.512 325.919 278.608 325.919C275.705 325.919 273.352 323.566 273.352 320.662C273.352 317.759 275.705 315.405 278.608 315.405Z" fill="black"/>
<path d="M289.122 315.405C292.025 315.405 294.379 317.759 294.379 320.662C294.379 323.566 292.025 325.919 289.122 325.919C286.219 325.919 283.865 323.566 283.865 320.662C283.865 317.759 286.219 315.405 289.122 315.405Z" fill="black"/>
<path d="M299.635 315.405C302.539 315.405 304.892 317.759 304.892 320.662C304.892 323.566 302.539 325.919 299.635 325.919C296.732 325.919 294.379 323.566 294.379 320.662C294.379 317.759 296.732 315.405 299.635 315.405Z" fill="black"/>
<path d="M310.149 315.405C313.052 315.405 315.406 317.759 315.406 320.662C315.406 323.566 313.052 325.919 310.149 325.919C307.246 325.919 304.892 323.566 304.892 320.662C304.892 317.759 307.246 315.405 310.149 315.405Z" fill="black"/>
<path d="M320.663 315.405C323.566 315.405 325.919 317.759 325.919 320.662C325.919 323.566 323.566 325.919 320.663 325.919C317.759 325.919 315.406 323.566 315.406 320.662C315.406 317.759 317.759 315.405 320.663 315.405Z" fill="black"/>
<path d="M331.176 315.405C334.079 315.405 336.433 317.759 336.433 320.662C336.433 323.566 334.079 325.919 331.176 325.919C328.273 325.919 325.919 323.566 325.919 320.662C325.919 317.759 328.273 315.405 331.176 315.405Z" fill="black"/>
<path d="M341.689 315.405C344.593 315.405 346.946 317.759 346.946 320.662C346.946 323.566 344.593 325.919 341.689 325.919C338.786 325.919 336.433 323.566 336.433 320.662C336.433 317.759 338.786 315.405 341.689 315.405Z" fill="black"/>
<path d="M352.203 315.405C355.106 315.405 357.46 317.759 357.46 320.662C357.46 323.566 355.106 325.919 352.203 325.919C349.3 325.919 346.946 323.566 346.946 320.662C346.946 317.759 349.3 315.405 352.203 315.405Z" fill="black"/>
<path d="M110.392 325.919C113.295 325.919 115.649 328.273 115.649 331.176C115.649 334.079 113.295 336.432 110.392 336.432C107.489 336.432 105.135 334.079 105.135 331.176C105.135 328.273 107.489 325.919 110.392 325.919Z" fill="black"/>
<path d="M120.906 325.919C123.809 325.919 126.162 328.273 126.162 331.176C126.162 334.079 123.809 336.432 120.906 336.432C118.002 336.432 115.649 334.079 115.649 331.176C115.649 328.273 118.002 325.919 120.906 325.919Z" fill="black"/>
<path d="M131.419 325.919C134.322 325.919 136.676 328.273 136.676 331.176C136.676 334.079 134.322 336.432 131.419 336.432C128.516 336.432 126.162 334.079 126.162 331.176C126.162 328.273 128.516 325.919 131.419 325.919Z" fill="black"/>
<path d="M162.96 325.919C165.863 325.919 168.216 328.273 168.216 331.176C168.216 334.079 165.863 336.432 162.96 336.432C160.056 336.432 157.703 334.079 157.703 331.176C157.703 328.273 160.056 325.919 162.96 325.919Z" fill="black"/>
<path d="M183.986 325.919C186.89 325.919 189.243 328.273 189.243 331.176C189.243 334.079 186.89 336.432 183.986 336.432C181.083 336.432 178.73 334.079 178.73 331.176C178.73 328.273 181.083 325.919 183.986 325.919Z" fill="black"/>
<path d="M194.5 325.919C197.404 325.919 199.757 328.273 199.757 331.176C199.757 334.079 197.404 336.432 194.5 336.432C191.597 336.432 189.243 334.079 189.243 331.176C189.243 328.273 191.597 325.919 194.5 325.919Z" fill="black"/>
<path d="M205.014 325.919C207.917 325.919 210.271 328.273 210.271 331.176C210.271 334.079 207.917 336.432 205.014 336.432C202.111 336.432 199.757 334.079 199.757 331.176C199.757 328.273 202.111 325.919 205.014 325.919Z" fill="black"/>
<path d="M215.528 325.919C218.431 325.919 220.784 328.273 220.784 331.176C220.784 334.079 218.431 336.432 215.528 336.432C212.624 336.432 210.271 334.079 210.271 331.176C210.271 328.273 212.624 325.919 215.528 325.919Z" fill="black"/>
<path d="M247.068 325.919C249.971 325.919 252.325 328.273 252.325 331.176C252.325 334.079 249.971 336.432 247.068 336.432C244.165 336.432 241.811 334.079 241.811 331.176C241.811 328.273 244.165 325.919 247.068 325.919Z" fill="black"/>
<path d="M257.581 325.919C260.485 325.919 262.838 328.273 262.838 331.176C262.838 334.079 260.485 336.432 257.581 336.432C254.678 336.432 252.324 334.079 252.324 331.176C252.324 328.273 254.678 325.919 257.581 325.919Z" fill="black"/>
<path d="M268.095 325.919C270.998 325.919 273.352 328.273 273.352 331.176C273.352 334.079 270.998 336.432 268.095 336.432C265.192 336.432 262.838 334.079 262.838 331.176C262.838 328.273 265.192 325.919 268.095 325.919Z" fill="black"/>
<path d="M278.608 325.919C281.512 325.919 283.865 328.273 283.865 331.176C283.865 334.079 281.512 336.432 278.608 336.432C275.705 336.432 273.352 334.079 273.352 331.176C273.352 328.273 275.705 325.919 278.608 325.919Z" fill="black"/>
<path d="M310.149 325.919C313.052 325.919 315.406 328.273 315.406 331.176C315.406 334.079 313.052 336.432 310.149 336.432C307.246 336.432 304.892 334.079 304.892 331.176C304.892 328.273 307.246 325.919 310.149 325.919Z" fill="black"/>
<path d="M331.176 325.919C334.079 325.919 336.433 328.273 336.433 331.176C336.433 334.079 334.079 336.432 331.176 336.432C328.273 336.432 325.919 334.079 325.919 331.176C325.919 328.273 328.273 325.919 331.176 325.919Z" fill="black"/>
<path d="M341.689 325.919C344.593 325.919 346.946 328.273 346.946 331.176C346.946 334.079 344.593 336.432 341.689 336.432C338.786 336.432 336.433 334.079 336.433 331.176C336.433 328.273 338.786 325.919 341.689 325.919Z" fill="black"/>
<path d="M110.392 336.432C113.295 336.432 115.649 338.786 115.649 341.689C115.649 344.592 113.295 346.946 110.392 346.946C107.489 346.946 105.135 344.592 105.135 341.689C105.135 338.786 107.489 336.432 110.392 336.432Z" fill="black"/>
<path d="M120.906 336.432C123.809 336.432 126.162 338.786 126.162 341.689C126.162 344.592 123.809 346.946 120.906 346.946C118.002 346.946 115.649 344.592 115.649 341.689C115.649 338.786 118.002 336.432 120.906 336.432Z" fill="black"/>
<path d="M152.446 336.432C155.35 336.432 157.703 338.786 157.703 341.689C157.703 344.592 155.35 346.946 152.446 346.946C149.543 346.946 147.189 344.592 147.189 341.689C147.189 338.786 149.543 336.432 152.446 336.432Z" fill="black"/>
<path d="M173.473 336.432C176.377 336.432 178.73 338.786 178.73 341.689C178.73 344.592 176.377 346.946 173.473 346.946C170.57 346.946 168.217 344.592 168.217 341.689C168.217 338.786 170.57 336.432 173.473 336.432Z" fill="black"/>
<path d="M183.986 336.432C186.89 336.432 189.243 338.786 189.243 341.689C189.243 344.592 186.89 346.946 183.986 346.946C181.083 346.946 178.73 344.592 178.73 341.689C178.73 338.786 181.083 336.432 183.986 336.432Z" fill="black"/>
<path d="M205.014 336.432C207.917 336.432 210.271 338.786 210.271 341.689C210.271 344.592 207.917 346.946 205.014 346.946C202.111 346.946 199.757 344.592 199.757 341.689C199.757 338.786 202.111 336.432 205.014 336.432Z" fill="black"/>
<path d="M247.068 336.432C249.971 336.432 252.325 338.786 252.325 341.689C252.325 344.592 249.971 346.946 247.068 346.946C244.165 346.946 241.811 344.592 241.811 341.689C241.811 338.786 244.165 336.432 247.068 336.432Z" fill="black"/>
<path d="M257.581 336.432C260.485 336.432 262.838 338.786 262.838 341.689C262.838 344.592 260.485 346.946 257.581 346.946C254.678 346.946 252.324 344.592 252.324 341.689C252.324 338.786 254.678 336.432 257.581 336.432Z" fill="black"/>
<path d="M268.095 336.432C270.998 336.432 273.352 338.786 273.352 341.689C273.352 344.592 270.998 346.946 268.095 346.946C265.192 346.946 262.838 344.592 262.838 341.689C262.838 338.786 265.192 336.432 268.095 336.432Z" fill="black"/>
<path d="M278.608 336.432C281.512 336.432 283.865 338.786 283.865 341.689C283.865 344.592 281.512 346.946 278.608 346.946C275.705 346.946 273.352 344.592 273.352 341.689C273.352 338.786 275.705 336.432 278.608 336.432Z" fill="black"/>
<path d="M289.122 336.432C292.025 336.432 294.379 338.786 294.379 341.689C294.379 344.592 292.025 346.946 289.122 346.946C286.219 346.946 283.865 344.592 283.865 341.689C283.865 338.786 286.219 336.432 289.122 336.432Z" fill="black"/>
<path d="M299.635 336.432C302.539 336.432 304.892 338.786 304.892 341.689C304.892 344.592 302.539 346.946 299.635 346.946C296.732 346.946 294.379 344.592 294.379 341.689C294.379 338.786 296.732 336.432 299.635 336.432Z" fill="black"/>
<path d="M120.906 346.946C123.809 346.946 126.162 349.299 126.162 352.203C126.162 355.106 123.809 357.459 120.906 357.459C118.002 357.459 115.649 355.106 115.649 352.203C115.649 349.299 118.002 346.946 120.906 346.946Z" fill="black"/>
<path d="M162.96 346.946C165.863 346.946 168.216 349.299 168.216 352.203C168.216 355.106 165.863 357.459 162.96 357.459C160.056 357.459 157.703 355.106 157.703 352.203C157.703 349.299 160.056 346.946 162.96 346.946Z" fill="black"/>
<path d="M194.5 346.946C197.404 346.946 199.757 349.299 199.757 352.203C199.757 355.106 197.404 357.459 194.5 357.459C191.597 357.459 189.243 355.106 189.243 352.203C189.243 349.299 191.597 346.946 194.5 346.946Z" fill="black"/>
<path d="M205.014 346.946C207.917 346.946 210.271 349.299 210.271 352.203C210.271 355.106 207.917 357.459 205.014 357.459C202.111 357.459 199.757 355.106 199.757 352.203C199.757 349.299 202.111 346.946 205.014 346.946Z" fill="black"/>
<path d="M215.528 346.946C218.431 346.946 220.784 349.299 220.784 352.203C220.784 355.106 218.431 357.459 215.528 357.459C212.624 357.459 210.271 355.106 210.271 352.203C210.271 349.299 212.624 346.946 215.528 346.946Z" fill="black"/>
<path d="M226.041 346.946C228.944 346.946 231.297 349.299 231.297 352.203C231.297 355.106 228.944 357.459 226.041 357.459C223.137 357.459 220.784 355.106 220.784 352.203C220.784 349.299 223.137 346.946 226.041 346.946Z" fill="black"/>
<path d="M268.095 346.946C270.998 346.946 273.352 349.299 273.352 352.203C273.352 355.106 270.998 357.459 268.095 357.459C265.192 357.459 262.838 355.106 262.838 352.203C262.838 349.299 265.192 346.946 268.095 346.946Z" fill="black"/>
<path d="M278.608 346.946C281.512 346.946 283.865 349.299 283.865 352.203C283.865 355.106 281.512 357.459 278.608 357.459C275.705 357.459 273.352 355.106 273.352 352.203C273.352 349.299 275.705 346.946 278.608 346.946Z" fill="black"/>
<path d="M341.689 346.946C344.593 346.946 346.946 349.299 346.946 352.203C346.946 355.106 344.593 357.459 341.689 357.459C338.786 357.459 336.433 355.106 336.433 352.203C336.433 349.299 338.786 346.946 341.689 346.946Z" fill="black"/>
<path d="M362.716 346.946C365.62 346.946 367.973 349.299 367.973 352.203C367.973 355.106 365.62 357.459 362.716 357.459C359.813 357.459 357.46 355.106 357.46 352.203C357.46 349.299 359.813 346.946 362.716 346.946Z" fill="black"/>
<path d="M120.906 357.459C123.809 357.459 126.162 359.813 126.162 362.716C126.162 365.62 123.809 367.973 120.906 367.973C118.002 367.973 115.649 365.62 115.649 362.716C115.649 359.813 118.002 357.459 120.906 357.459Z" fill="black"/>
<path d="M141.933 357.459C144.836 357.459 147.19 359.813 147.19 362.716C147.19 365.62 144.836 367.973 141.933 367.973C139.03 367.973 136.676 365.62 136.676 362.716C136.676 359.813 139.03 357.459 141.933 357.459Z" fill="black"/>
<path d="M162.96 357.459C165.863 357.459 168.216 359.813 168.216 362.716C168.216 365.62 165.863 367.973 162.96 367.973C160.056 367.973 157.703 365.62 157.703 362.716C157.703 359.813 160.056 357.459 162.96 357.459Z" fill="black"/>
<path d="M194.5 357.459C197.404 357.459 199.757 359.813 199.757 362.716C199.757 365.62 197.404 367.973 194.5 367.973C191.597 367.973 189.243 365.62 189.243 362.716C189.243 359.813 191.597 357.459 194.5 357.459Z" fill="black"/>
<path d="M205.014 357.459C207.917 357.459 210.271 359.813 210.271 362.716C210.271 365.62 207.917 367.973 205.014 367.973C202.111 367.973 199.757 365.62 199.757 362.716C199.757 359.813 202.111 357.459 205.014 357.459Z" fill="black"/>
<path d="M226.041 357.459C228.944 357.459 231.297 359.813 231.297 362.716C231.297 365.62 228.944 367.973 226.041 367.973C223.137 367.973 220.784 365.62 220.784 362.716C220.784 359.813 223.137 357.459 226.041 357.459Z" fill="black"/>
<path d="M236.554 357.459C239.458 357.459 241.811 359.813 241.811 362.716C241.811 365.62 239.458 367.973 236.554 367.973C233.651 367.973 231.298 365.62 231.298 362.716C231.298 359.813 233.651 357.459 236.554 357.459Z" fill="black"/>
<path d="M257.581 357.459C260.485 357.459 262.838 359.813 262.838 362.716C262.838 365.62 260.485 367.973 257.581 367.973C254.678 367.973 252.324 365.62 252.324 362.716C252.324 359.813 254.678 357.459 257.581 357.459Z" fill="black"/>
<path d="M268.095 357.459C270.998 357.459 273.352 359.813 273.352 362.716C273.352 365.62 270.998 367.973 268.095 367.973C265.192 367.973 262.838 365.62 262.838 362.716C262.838 359.813 265.192 357.459 268.095 357.459Z" fill="black"/>
<path d="M310.149 357.459C313.052 357.459 315.406 359.813 315.406 362.716C315.406 365.62 313.052 367.973 310.149 367.973C307.246 367.973 304.892 365.62 304.892 362.716C304.892 359.813 307.246 357.459 310.149 357.459Z" fill="black"/>
<path d="M320.663 357.459C323.566 357.459 325.919 359.813 325.919 362.716C325.919 365.62 323.566 367.973 320.663 367.973C317.759 367.973 315.406 365.62 315.406 362.716C315.406 359.813 317.759 357.459 320.663 357.459Z" fill="black"/>
<path d="M69.4958 21.0331H46.153C34.7768 21.0331 25.1388 28.5493 22.0574 38.8224C21.7388 39.8851 21.49 40.9772 21.3171 42.0936C21.1265 43.3256 21.0271 44.587 21.0271 45.8713V69.7682C21.0271 83.4707 32.3018 94.6137 46.153 94.6137L57.8244 94.6159L69.4958 94.613C83.3463 94.613 94.6217 83.47 94.6217 69.7674V45.8713C94.6217 32.1753 83.347 21.0331 69.4958 21.0331ZM83.5825 69.7682C83.5825 77.3808 77.2637 83.5745 69.4928 83.5745L57.8244 83.5767L46.156 83.5738C38.3851 83.5738 32.0663 77.38 32.0663 69.7682V45.8713C32.0663 43.4934 32.683 41.2547 33.7685 39.2985C34.8136 37.4167 36.2921 35.7984 38.0723 34.573C40.3611 32.9974 43.1482 32.0723 46.1523 32.0723H69.4958C77.2637 32.0723 83.5825 38.2623 83.5825 45.8713V69.7682Z" fill="black"/>
<path d="M342.847 21.033H319.505C308.128 21.033 298.49 28.5492 295.409 38.8222C295.09 39.885 294.842 40.9771 294.669 42.0935C294.478 43.3255 294.379 44.5869 294.379 45.8711V69.768C294.379 83.4706 305.653 94.6136 319.505 94.6136L331.176 94.6158L342.847 94.6128C356.698 94.6128 367.973 83.4699 367.973 69.7673V45.8711C367.973 32.1752 356.699 21.033 342.847 21.033ZM356.934 69.768C356.934 77.3807 350.615 83.5744 342.844 83.5744L331.176 83.5766L319.508 83.5736C311.737 83.5736 305.418 77.3799 305.418 69.768V45.8711C305.418 43.4933 306.035 41.2545 307.12 39.2984C308.165 37.4166 309.644 35.7982 311.424 34.5729C313.713 32.9972 316.5 32.0721 319.504 32.0721H342.847C350.615 32.0721 356.934 38.2622 356.934 45.8711V69.768Z" fill="black"/>
<path d="M69.496 294.384H46.1533C34.777 294.384 25.1391 301.9 22.0577 312.174C21.739 313.236 21.4903 314.328 21.3173 315.445C21.1267 316.677 21.0273 317.938 21.0273 319.222V343.119C21.0273 356.822 32.302 367.965 46.1533 367.965L57.8246 367.967L69.496 367.964C83.3465 367.964 94.6219 356.821 94.6219 343.119V319.222C94.6219 305.526 83.3472 294.384 69.496 294.384ZM83.5827 343.119C83.5827 350.732 77.2639 356.926 69.4931 356.926L57.8246 356.928L46.1562 356.925C38.3854 356.925 32.0665 350.731 32.0665 343.119V319.222C32.0665 316.845 32.6833 314.606 33.7688 312.65C34.8138 310.768 36.2923 309.15 38.0726 307.924C40.3614 306.349 43.1484 305.423 46.1525 305.423H69.496C77.2639 305.423 83.5827 311.614 83.5827 319.222V343.119Z" fill="black"/>
<path d="M50.6809 73.5946C45.9214 73.5946 42.0498 69.7997 42.0498 65.1392V50.505C42.0498 49.0491 42.4283 47.679 43.091 46.4802C43.7309 45.3264 44.6368 44.3348 45.7277 43.5866C47.1291 42.6221 48.8373 42.0541 50.6761 42.0541H64.9725C69.7276 42.0541 73.5992 45.8446 73.5992 50.5047V65.1389C73.5992 69.799 69.7279 73.5943 64.9725 73.5943H57.8245L50.6809 73.5946Z" fill="black"/>
<path d="M324.032 73.5946C319.273 73.5946 315.401 69.7997 315.401 65.1392V50.505C315.401 49.0491 315.78 47.679 316.442 46.4802C317.082 45.3264 317.988 44.3348 319.079 43.5866C320.48 42.6221 322.189 42.0541 324.027 42.0541H338.324C343.079 42.0541 346.95 45.8446 346.95 50.5047V65.1389C346.95 69.799 343.079 73.5943 338.324 73.5943H331.176L324.032 73.5946Z" fill="black"/>
<path d="M50.6809 346.946C45.9214 346.946 42.0498 343.151 42.0498 338.491V323.856C42.0498 322.4 42.4283 321.03 43.091 319.831C43.7309 318.678 44.6368 317.686 45.7277 316.938C47.1291 315.973 48.8373 315.405 50.6761 315.405H64.9725C69.7276 315.405 73.5992 319.196 73.5992 323.856V338.49C73.5992 343.15 69.7279 346.946 64.9725 346.946H57.8245L50.6809 346.946Z" fill="black"/>
<path d="M227.622 209.211C227.622 221.09 213.458 225.917 195.871 225.917C178.284 225.917 163.914 221.09 163.914 209.211C163.914 197.332 178.181 187.719 195.768 187.719C213.355 187.719 227.622 197.353 227.622 209.211Z" fill="#24A95A"/>
<path d="M224.324 183.317C224.324 177.062 219.334 171.983 213.19 171.983C209.727 171.983 206.634 173.599 204.593 176.118C201.809 175.488 198.84 175.131 195.768 175.131C192.696 175.131 189.727 175.467 186.944 176.118C184.882 173.599 181.789 171.983 178.346 171.983C172.202 171.983 167.213 177.062 167.213 183.317C167.213 185.373 167.749 187.283 168.677 188.941C167.79 190.872 167.316 192.929 167.316 195.07C167.316 206.088 180.058 215.008 195.768 215.008C211.479 215.008 224.221 206.088 224.221 195.07C224.221 192.929 223.747 190.872 222.86 188.941C223.788 187.283 224.324 185.373 224.324 183.317Z" fill="#32DA6D"/>
<path d="M173.887 225.099C175.351 225.099 176.506 223.798 176.341 222.328C175.743 217.123 173.207 205.853 162.053 199.074C147.208 190.049 158.96 221.111 158.96 221.111L155.888 222.916C154.857 223.525 155.29 225.099 156.465 225.099H173.887Z" fill="#32DA6D"/>
<path d="M173.887 225.099C175.351 225.099 176.506 223.798 176.341 222.328C175.743 217.123 173.207 205.853 162.053 199.074C147.208 190.049 158.96 221.111 158.96 221.111L155.888 222.916C154.857 223.525 155.29 225.099 156.465 225.099H173.887Z" fill="#32DA6D"/>
<path d="M218.184 225.099C216.864 225.099 215.833 223.798 215.978 222.328C216.493 217.144 218.802 205.853 228.864 199.074C242.286 190.049 231.668 221.111 231.668 221.111L234.451 222.916C235.379 223.525 234.987 225.099 233.936 225.099H218.184Z" fill="#32DA6D"/>
<path d="M218.184 225.099C216.864 225.099 215.833 223.798 215.978 222.328C216.493 217.144 218.802 205.853 228.864 199.074C242.286 190.049 231.668 221.111 231.668 221.111L234.451 222.916C235.379 223.525 234.987 225.099 233.936 225.099H218.184Z" fill="#32DA6D"/>
<path d="M177.519 189.65C181.277 189.65 184.323 186.549 184.323 182.724C184.323 178.899 181.277 175.798 177.519 175.798C173.762 175.798 170.716 178.899 170.716 182.724C170.716 186.549 173.762 189.65 177.519 189.65Z" fill="url(#paint0_linear_87_3719)"/>
<path d="M177.532 186.468C179.582 186.468 181.243 184.776 181.243 182.69C181.243 180.604 179.582 178.912 177.532 178.912C175.482 178.912 173.821 180.604 173.821 182.69C173.821 184.776 175.482 186.468 177.532 186.468Z" fill="black"/>
<path d="M213.83 189.65C217.588 189.65 220.634 186.549 220.634 182.724C220.634 178.899 217.588 175.798 213.83 175.798C210.073 175.798 207.027 178.899 207.027 182.724C207.027 186.549 210.073 189.65 213.83 189.65Z" fill="url(#paint1_linear_87_3719)"/>
<path d="M213.802 186.468C215.852 186.468 217.513 184.776 217.513 182.69C217.513 180.604 215.852 178.912 213.802 178.912C211.752 178.912 210.091 180.604 210.091 182.69C210.091 184.776 211.752 186.468 213.802 186.468Z" fill="black"/>
<path d="M187.586 200.689C187.459 201.679 187.53 202.684 187.793 203.646C188.055 204.609 188.506 205.51 189.118 206.299C189.73 207.088 190.492 207.749 191.36 208.244C192.228 208.739 193.186 209.059 194.178 209.185C195.17 209.311 196.177 209.241 197.142 208.978C198.107 208.716 199.01 208.267 199.801 207.656C200.592 207.046 201.254 206.286 201.751 205.42C202.247 204.554 202.568 203.599 202.694 202.609L187.586 200.689Z" fill="#092511"/>
</g>
<defs>
<linearGradient id="paint0_linear_87_3719" x1="195.1" y1="171.983" x2="195.1" y2="225.917" gradientUnits="userSpaceOnUse">
<stop stop-color="white"/>
<stop offset="1" stop-color="#C4C4C4"/>
</linearGradient>
<linearGradient id="paint1_linear_87_3719" x1="195.1" y1="171.983" x2="195.1" y2="225.917" gradientUnits="userSpaceOnUse">
<stop stop-color="white"/>
<stop offset="1" stop-color="#C4C4C4"/>
</linearGradient>
<clipPath id="clip0_87_3719">
<rect width="389" height="389" rx="18.9922" fill="white"/>
</clipPath>
</defs>
</svg>
